<svg width="59" height="58" viewBox="0 0 59 58" fill="none" xmlns="http://www.w3.org/2000/svg">
<path fill-rule="evenodd" clip-rule="evenodd" d="M37.8755 8.62752C38.2295 8.16352 38.5491 7.67857 38.8343 7.17269C40.56 4.29202 40.5846 4.12285 40.1175 3.63952C39.6505 3.15619 39.3063 2.71877 36.521 5.33119C36.226 5.60507 35.9638 5.90474 35.7343 6.23019C35.4983 6.54435 35.2927 6.87463 35.1173 7.22102C33.5415 10.7808 34.5765 10.9258 34.6256 10.9499C34.6748 10.9741 35.2156 11.8248 37.8755 8.62752ZM38.8859 50.7573C38.6213 50.2607 38.3084 49.7905 37.9517 49.3532C35.2894 46.1584 34.7731 46.9317 34.6994 46.9317C34.6256 46.9317 33.6152 47.1008 35.191 50.6606C35.3631 51.0199 35.568 51.3582 35.8056 51.6756C36.0416 51.9849 36.2965 52.2766 36.5702 52.5504C39.353 55.1653 39.8963 54.5104 40.1913 54.2421C40.4863 53.9763 40.6092 53.5654 38.8859 50.7573ZM55.0667 17.8278C55.5436 17.5378 55.9959 17.2155 56.4237 16.8611C58.8869 14.6305 59.0098 14.4372 58.7394 13.8572C58.469 13.2772 58.2232 12.7673 54.7741 14.413C54.4218 14.5935 54.085 14.7949 53.7638 15.0172C53.4442 15.2524 53.1484 15.511 52.8763 15.7929C50.2655 18.7244 51.2022 19.1594 51.2513 19.2077C51.3005 19.256 51.5685 20.0777 55.0667 17.8278ZM56.6449 43.2994C56.2143 42.9275 55.762 42.5805 55.2904 42.2603C51.7922 40.0079 51.5218 40.9021 51.4726 40.9504C51.4234 40.9988 50.4893 41.4338 53.0975 44.3652C53.368 44.6439 53.6548 44.9017 53.958 45.1385C54.2907 45.3641 54.6365 45.5663 54.9954 45.7451C58.442 47.3909 58.764 46.6151 58.9361 46.3009C59.1082 45.9868 59.1082 45.4551 56.6449 43.2994ZM17.9483 6.90685C18.1286 7.44013 18.3506 7.95649 18.6145 8.45594C20.5615 12.0157 21.2252 11.4599 21.299 11.4357C21.3727 11.4115 22.4077 11.4357 21.5694 7.6826C21.4756 7.29952 21.3438 6.92638 21.1761 6.56852C21.0181 6.20906 20.8203 5.86785 20.5861 5.5511C18.3932 2.45293 17.7246 2.9846 17.405 3.1296C17.0854 3.2746 16.8912 3.8546 17.9483 6.90685ZM21.3727 46.4967C21.3727 46.4967 20.6353 45.82 18.6637 49.474C18.4205 49.9779 18.2071 50.4951 18.0245 51.0231C16.9158 54.172 16.9158 54.3654 17.4837 54.752C18.0491 55.1387 18.467 55.477 20.6598 52.3305C20.886 52.0083 21.0827 51.67 21.2498 51.3155C21.417 50.9546 21.5481 50.5833 21.6432 50.2014C22.4815 46.4484 21.4465 46.5209 21.3727 46.4967ZM2.28625 16.3754C2.57305 16.8651 2.90083 17.3243 3.26958 17.7529C6.00325 20.9042 6.52196 20.1792 6.57112 20.1792C6.62029 20.1792 7.65279 19.9859 6.00571 16.4744C5.82971 16.1136 5.61459 15.7725 5.36408 15.457C5.13464 15.0929 4.87242 14.7546 4.57742 14.442C1.71591 12.0133 1.19721 12.6199 0.92679 12.8857C0.656373 13.1515 0.508873 13.5624 2.28133 16.3729M2.58125 42.2579C2.21414 42.6929 1.88554 43.1528 1.59546 43.6378C-0.17946 46.4725 -0.204043 46.6417 0.240915 47.1492C0.685873 47.6567 1.02758 48.0699 3.88417 45.5276C4.17425 45.2602 4.43729 44.9702 4.67329 44.6576C4.91912 44.3434 5.13218 44.0124 5.31246 43.6644C6.96446 40.1288 5.95408 39.9838 5.88033 39.9354C5.80658 39.8871 5.31737 39.1355 2.58125 42.2579Z" fill="#001BAB"/>
<path fill-rule="evenodd" clip-rule="evenodd" d="M26.668 36.569C26.668 37.149 26.668 37.7532 26.8401 38.3356C26.8528 38.5753 26.9606 38.8006 27.1402 38.9632C27.3199 39.1259 27.5572 39.2128 27.8013 39.2056C28.0474 39.1938 28.2794 39.0893 28.4492 38.9138C28.619 38.7383 28.7136 38.5053 28.7133 38.2631V36.6415C29.5492 36.5915 30.3702 36.4546 31.1766 36.2307C31.8536 36.0874 32.4936 35.8094 33.0572 35.4138C33.6208 35.0182 34.0961 34.5134 34.4537 33.9304C34.8114 33.3474 35.0439 32.6987 35.1368 32.0241C35.2298 31.3494 35.1813 30.6632 34.9944 30.0077C34.8514 29.3958 34.5492 28.8309 34.1174 28.3683C33.6856 27.9057 33.139 27.5613 32.5311 27.3687C31.5073 27.1323 30.4516 27.0589 29.4041 27.1512V24.0482C30.3997 24.0772 31.3831 24.273 32.3099 24.6282C32.4533 24.7046 32.6168 24.7367 32.7791 24.7203C32.9413 24.7039 33.0948 24.6398 33.2194 24.5364C33.3026 24.4678 33.3709 24.3834 33.4204 24.2884C33.4698 24.1933 33.4993 24.0895 33.5071 23.983C33.5203 23.8223 33.4836 23.6615 33.402 23.5218C33.3204 23.382 33.1976 23.2698 33.0498 23.2C31.9044 22.5902 30.6497 22.2045 29.3549 22.0642V18.5262C29.3723 18.4206 29.3671 18.3127 29.3399 18.2092C29.3127 18.1057 29.2639 18.0089 29.1967 17.9249C29.1294 17.8409 29.0452 17.7715 28.9493 17.7211C28.8535 17.6706 28.748 17.6403 28.6396 17.632C28.4216 17.6116 28.2041 17.6762 28.034 17.8117C27.8639 17.9473 27.7548 18.1431 27.73 18.357C27.4842 19.5677 27.3096 20.7785 27.0884 22.0376C26.5902 22.0493 26.0948 22.1141 25.6109 22.2309C25.0693 22.3317 24.5537 22.5379 24.0943 22.8373C23.6349 23.1367 23.2411 23.5234 22.9358 23.9745C22.6305 24.4257 22.42 24.9323 22.3167 25.4645C22.2133 25.9968 22.2192 26.5439 22.3339 27.0739C22.395 27.7099 22.6379 28.3159 23.0347 28.8219C23.4314 29.3278 23.9658 29.713 24.5759 29.9328C25.1659 30.102 25.7805 30.1938 26.3976 30.1987V31.3345C26.3976 32.3543 26.5942 33.3693 26.6926 34.3626C25.3253 34.3694 23.9932 33.9366 22.8994 33.1301C22.7208 32.9617 22.483 32.8677 22.2356 32.8677C21.9882 32.8677 21.7504 32.9617 21.5719 33.1301C21.4842 33.2155 21.4145 33.3171 21.367 33.4291C21.3195 33.5411 21.295 33.6612 21.295 33.7826C21.295 33.9039 21.3195 34.0241 21.367 34.1361C21.4145 34.2481 21.4842 34.3497 21.5719 34.4351C22.9811 35.6845 24.775 36.4348 26.668 36.5666M31.152 30.247C31.5453 30.247 31.8649 30.4162 31.9878 30.827C32.6294 32.7652 30.9062 33.8067 28.9837 34.2176L29.0821 31.3852V30.2712H29.5492C30.0834 30.2067 30.6177 30.1987 31.152 30.247ZM24.8218 26.5422C24.5022 25.3073 25.338 24.6524 26.4467 24.3141C26.4467 24.6524 26.2992 24.9666 26.2747 25.3049C26.2501 25.6457 26.2747 26.5906 26.1517 27.2189H25.6601C25.465 27.2096 25.2781 27.1387 25.1271 27.0168C24.9761 26.895 24.8691 26.7286 24.8218 26.5422Z" fill="#020202"/>
<path fill-rule="evenodd" clip-rule="evenodd" d="M51.7184 38.4806C53.9943 36.5566 55.768 34.1244 56.8908 31.3877C56.9768 31.1941 56.9925 30.9774 56.9352 30.7738C56.878 30.5702 56.7513 30.3922 56.5764 30.2695C56.4015 30.1469 56.189 30.0871 55.9745 30.1001C55.7601 30.1132 55.5567 30.1983 55.3985 30.3413C55.3116 30.4261 55.2416 30.5261 55.192 30.6361C53.7771 33.6349 51.4995 36.1604 48.6406 37.9006C45.8871 39.4563 42.9279 40.6298 39.8471 41.3879C41.4824 40.0784 42.7958 38.4229 43.6895 36.5449C45.059 33.5979 45.4462 30.3009 44.7958 27.1247C44.0302 23.8881 42.4953 20.876 40.3167 18.3353C46.3954 21.2421 52.0325 24.9673 57.0653 29.4036C57.1522 29.4902 57.2557 29.559 57.3699 29.6059C57.484 29.6528 57.6065 29.677 57.7303 29.677C57.854 29.677 57.9765 29.6528 58.0907 29.6059C58.2048 29.559 58.3084 29.4902 58.3953 29.4036C58.5608 29.2291 58.6529 28.9994 58.6529 28.7608C58.6529 28.5222 58.5608 28.2924 58.3953 28.1179C52.4117 22.4774 44.7515 16.3246 36.4005 13.5889C30.5399 11.5106 24.1089 11.5783 18.2974 13.7823C16.665 14.4541 15.1048 15.2621 13.6167 16.2062C12.1352 17.1261 10.7314 18.1508 9.40559 19.2802C8.06312 20.4532 6.80397 21.7153 5.63696 23.0574C4.50449 24.4204 3.49493 25.8656 2.60829 27.3929C2.55033 27.483 2.51131 27.5835 2.49354 27.6886C2.47576 27.7937 2.47959 27.9013 2.5048 28.0049C2.53001 28.1085 2.57608 28.2061 2.6403 28.292C2.70452 28.3778 2.78559 28.4501 2.87871 28.5046C2.9703 28.5616 3.07257 28.5999 3.17948 28.6174C3.2864 28.6349 3.3958 28.6311 3.50121 28.6064C3.60662 28.5816 3.70591 28.5363 3.79322 28.4731C3.88053 28.41 3.95409 28.3303 4.00954 28.2388C4.92241 26.8307 5.95736 25.5152 7.11442 24.2924C8.26656 23.084 9.50638 21.9699 10.8339 20.9501C12.1305 19.9679 13.4967 19.078 14.9221 18.2869C15.2023 18.1339 15.4891 17.9969 15.7825 17.8761C14.5962 19.1413 13.6018 20.5681 12.83 22.1125C11.5226 25.1009 11.0295 28.3725 11.3993 31.6052C11.6231 34.8878 12.9486 38.0046 15.1679 40.4671C15.2826 40.5316 15.3892 40.6041 15.4875 40.6846C13.9822 40.2499 12.5226 39.6745 11.1289 38.9664C7.7204 37.1614 5.09448 34.2012 3.73913 30.6361C3.65679 30.4398 3.50238 30.2812 3.30655 30.1916C3.11072 30.1021 2.88779 30.0882 2.68204 30.1528C2.57996 30.1855 2.48552 30.2379 2.40418 30.3068C2.32284 30.3757 2.25623 30.4598 2.2082 30.5543C2.16018 30.6487 2.13171 30.7515 2.12443 30.8568C2.11715 30.9622 2.13121 31.0678 2.16579 31.1678C3.4207 35.2753 6.15079 38.7947 9.84809 41.0713C13.5325 43.2583 17.6462 44.6535 21.9185 45.1651C25.4905 45.6581 29.1018 45.8369 32.7057 45.6968C35.2132 45.5711 37.6961 45.1409 40.0954 44.4159C44.3293 43.2049 48.28 41.1883 51.7233 38.4806M13.9879 31.3877C13.7718 28.6244 14.2885 25.8533 15.4875 23.345C16.6881 21.0399 18.477 19.0806 20.679 17.6589C22.881 16.2373 25.4207 15.402 28.0496 15.2347C29.7129 15.2363 31.3586 15.5698 32.887 16.2149C34.4154 16.86 35.7947 17.8033 36.9414 18.9878C39.47 21.3325 41.279 24.3274 42.1629 27.6322C42.8017 30.2756 42.5604 33.0507 41.4745 35.5492C40.4881 38.0837 38.547 40.1477 36.0539 41.3129C35.2625 41.6602 34.4371 41.9274 33.5907 42.1104C30.0187 42.5938 26.3976 42.5938 22.8256 42.1104C21.7016 41.8725 20.6046 41.5243 19.5511 41.0713C18.497 40.6 17.5505 39.9243 16.7683 39.0848C14.9899 36.8968 14.0092 34.1858 13.983 31.3853" fill="#020202"/>
</svg>
