<svg width="46" height="46" viewBox="0 0 46 46" fill="none" xmlns="http://www.w3.org/2000/svg">
<path fill-rule="evenodd" clip-rule="evenodd" d="M40.135 15.0038C40.0485 14.9575 39.953 14.9307 39.8551 14.9253C39.7571 14.9199 39.6592 14.9361 39.5682 14.9726C39.4772 15.0092 39.3954 15.0652 39.3284 15.1369C39.2614 15.2085 39.2109 15.2939 39.1805 15.3871C39.1091 15.5419 39.1013 15.7185 39.1586 15.879C39.216 16.0395 39.3339 16.1712 39.4871 16.2458C41.8945 17.298 44.0929 21.2905 43.9587 26.0879C43.7538 29.9884 42.1768 33.691 39.5063 36.5414C37.4372 39.058 34.8488 41.0979 31.9182 42.5214C29.062 43.8829 25.8071 44.1555 22.7642 43.288C21.9022 43.0453 21.0881 42.657 20.3569 42.14C19.8221 41.7375 19.2682 41.2985 19.4599 40.7063L20.3569 39.541C20.9127 38.8529 21.4475 38.1648 22.0397 37.4959C22.4062 37.0617 22.802 36.6532 23.2242 36.273C23.467 36.0175 23.7283 35.7817 24.0081 35.5658C24.1222 35.4682 24.2517 35.3905 24.3915 35.3358C24.3915 35.585 25.0393 35.6808 25.4016 35.9875C26.2103 36.7189 27.1337 37.3127 28.1347 37.745C28.504 37.872 28.9032 37.8831 29.279 37.7769C29.6547 37.6707 29.9891 37.4523 30.2373 37.1509L34.9772 31.2475C35.6634 30.4828 36.5815 29.5666 37.3462 28.5719C37.9097 27.8953 38.3391 27.1171 38.6074 26.2795C38.6743 25.9677 38.6676 25.6446 38.5877 25.3358C38.5078 25.0271 38.3571 24.7412 38.1474 24.5009C37.4621 23.7222 36.7147 23.0004 35.9126 22.3427C34.7281 21.2732 34.8622 21.4246 35.5101 20.4318L38.2241 16.8572C38.2751 16.8004 38.3134 16.7333 38.3364 16.6605C38.3595 16.5877 38.3667 16.5108 38.3576 16.4349C38.3485 16.3591 38.3234 16.2861 38.2838 16.2207C38.2443 16.1554 38.1912 16.0992 38.1282 16.056C38.0707 16.0108 38.0047 15.9774 37.9342 15.9578C37.8637 15.9381 37.79 15.9326 37.7173 15.9415C37.6447 15.9504 37.5745 15.9736 37.5108 16.0097C37.4471 16.0458 37.3912 16.0941 37.3462 16.1519L34.4041 19.6843C34.2508 19.9143 33.925 20.221 33.7525 20.5257C33.5908 20.7739 33.5229 21.0715 33.5608 21.3652C33.6873 21.8961 33.9595 22.3791 34.3466 22.7605C34.9389 23.4314 35.8359 24.1559 36.4856 24.844C36.8498 25.2273 37.1948 25.532 37.099 25.856C36.8662 26.5001 36.5079 27.0917 36.0448 27.5963C35.282 28.5316 34.3275 29.3922 33.6586 30.1186L28.6886 35.8495H28.5736C28.3875 35.7624 28.2087 35.6605 28.0389 35.5447C27.1227 34.9141 26.128 33.9213 25.4016 33.5015C25.0603 33.3019 24.6697 33.2023 24.2746 33.214C23.8995 33.2344 23.5339 33.3392 23.2051 33.5207C22.6594 33.8478 22.1624 34.2363 21.7139 34.686C21.2366 35.125 20.7977 35.583 20.3569 36.043C19.9161 36.503 19.1532 37.4556 18.5801 38.182C18.3118 38.5079 17.9496 38.872 17.6812 39.2535C17.5279 39.5014 17.4008 39.762 17.2998 40.0355C17.1352 40.6367 17.1487 41.2727 17.3385 41.8664C17.5284 42.4601 17.8865 42.9859 18.3693 43.38C19.4795 44.3356 20.7833 45.0398 22.1911 45.4443C25.7314 46.4306 29.5099 46.0905 32.8171 44.4879C35.9622 42.8671 38.7194 40.5852 40.8997 37.7987C43.7432 34.5763 45.3663 30.4586 45.4863 26.1626C45.563 20.6599 42.8298 16.2822 40.1369 15.0019" fill="#020202"/>
<path fill-rule="evenodd" clip-rule="evenodd" d="M26.9502 18.9021C27.6019 17.1081 27.7131 15.1608 27.2761 13.3036C27.1754 12.5826 26.9326 11.8888 26.5618 11.2624C26.191 10.6359 25.6996 10.0893 25.116 9.65422C24.7047 9.53026 24.2661 9.53026 23.8548 9.65422C23.2798 9.76922 22.4787 9.9973 21.7906 10.189C22.119 8.74591 22.0528 7.24103 21.5989 5.83239C20.9569 3.76956 19.5478 2.03178 17.6621 0.977469C16.9077 0.598215 16.1139 0.303186 15.295 0.0977194C14.8913 -0.0332242 14.4566 -0.0332242 14.053 0.0977194C13.8567 0.209394 13.6878 0.363573 13.5588 0.548961C13.4298 0.734348 13.3439 0.946248 13.3074 1.16914C13.1349 1.89555 13.1541 3.53814 12.7727 4.99097C12.558 5.7193 12.2302 6.4093 11.799 7.03605C11.3848 7.64063 10.8513 8.15398 10.2312 8.54447C10.1407 8.61395 10.0299 8.65161 9.91586 8.65161C9.80183 8.65161 9.69099 8.61395 9.60057 8.54447C8.94124 7.86341 8.24038 7.22644 7.49799 6.63355C6.94404 6.31971 6.34461 6.09404 5.72124 5.96464C5.51045 5.92798 5.29388 5.94377 5.09065 6.01062C4.88741 6.07748 4.70376 6.19333 4.5559 6.34797C4.36505 6.60663 4.22223 6.89747 4.13424 7.20664C4.02969 7.90796 3.86358 8.59871 3.63782 9.27089C3.04365 10.1704 2.40604 11.0368 1.72499 11.8699C1.42236 12.3072 1.16607 12.7748 0.960236 13.2652C0.633981 14.0586 0.482239 14.9129 0.51531 15.7701C0.548381 16.6273 0.765491 17.4673 1.1519 18.2332C2.28915 20.3281 3.9567 22.0875 5.98765 23.3354C6.88849 23.8414 7.84299 24.2439 8.8339 24.5391C10.254 24.9885 11.7032 25.3401 13.1713 25.5913C15.8656 25.8483 18.5794 25.3729 21.0258 24.2151C23.5673 23.2013 25.6666 21.3186 26.9502 18.9021ZM13.2672 24.2343C11.865 24.0372 10.4793 23.7367 9.1214 23.3354C8.23608 23.1119 7.38225 22.7784 6.5799 22.3426C4.79042 21.1957 3.3389 19.5927 2.37474 17.6985C2.09453 17.1004 1.94928 16.448 1.94928 15.7876C1.94928 15.1271 2.09453 14.4747 2.37474 13.8766C2.5549 13.5022 2.76574 13.1457 3.00724 12.8071C3.67424 11.9082 4.45815 11.1818 5.1079 10.1315C5.23568 9.90019 5.3379 9.65741 5.41457 9.40314C5.54874 8.9853 5.60624 8.42947 5.70015 8.02889C5.98765 8.14389 6.44574 8.18222 6.54157 8.23972C6.96962 8.60133 7.3389 9.01533 7.6494 9.48172C8.01357 9.91297 8.46207 10.2637 8.96807 10.5129C9.68107 10.8157 10.4976 10.7429 11.1473 10.3212C12.0342 9.81459 12.7975 9.1174 13.3822 8.27997C13.9859 7.48264 14.4382 6.5818 14.72 5.62347C15.134 4.56355 15.4292 3.46147 15.5997 2.33639C15.946 2.48589 16.277 2.66477 16.5926 2.87305C17.9889 3.64154 19.0412 4.91169 19.5366 6.42655C20.0263 7.93753 19.9165 9.57892 19.2299 11.0112C18.5437 12.4449 19.2299 12.6557 20.4336 12.5599C20.8361 12.5599 21.8289 12.3874 21.9631 12.3491C23.529 11.9101 24.7729 10.0951 25.4782 14.5283C25.7178 15.755 25.6239 17.02 25.2099 18.1968C24.1685 20.291 22.3946 21.9299 20.2247 22.8026C18.082 23.9126 15.6741 24.4087 13.2672 24.2362" fill="#001BAB"/>
<path fill-rule="evenodd" clip-rule="evenodd" d="M15.9236 15.6918C15.5815 15.5449 15.2222 15.4418 14.8541 15.3852C14.1641 15.2702 13.4588 15.3852 12.7899 15.1935C12.1666 15.091 11.5808 14.8281 11.0898 14.4307C10.5923 14.0429 10.2415 13.4975 10.0951 12.8839C10.0866 12.8051 10.0619 12.7289 10.0225 12.6601C9.98316 12.5913 9.93001 12.5314 9.86639 12.4841C9.80278 12.4368 9.73008 12.4032 9.65286 12.3854C9.57563 12.3675 9.49555 12.3658 9.41765 12.3804C9.33974 12.395 9.26568 12.4255 9.20013 12.4701C9.13458 12.5146 9.07895 12.5723 9.03674 12.6393C8.99452 12.7064 8.96662 12.7815 8.95481 12.8599C8.94299 12.9382 8.9475 13.0182 8.96806 13.0948C9.00639 13.2941 8.96806 13.227 8.96806 13.2845C8.83681 13.4822 8.72755 13.6937 8.64223 13.9151C8.52505 14.3215 8.44171 14.7369 8.39306 15.1571C8.22126 16.1167 8.30049 17.1045 8.62306 18.0244C8.95656 18.9655 9.51431 19.8127 10.2484 20.4893C11.2196 21.3299 12.4443 21.8211 13.7271 21.8846C14.4131 21.9408 15.103 21.841 15.7449 21.5927C16.3869 21.3444 16.9643 20.9541 17.434 20.4509C18.0243 19.8069 18.2581 18.9138 18.0646 18.0628C17.8992 17.5369 17.6223 17.0528 17.2528 16.6437C16.8834 16.2345 16.43 15.9098 15.9236 15.6918ZM15.7895 19.0556C15.5367 19.3009 15.2374 19.4931 14.9092 19.6212C14.5811 19.7492 14.2307 19.8104 13.8786 19.8012C13.0189 19.8218 12.1753 19.5665 11.4712 19.0728C10.9156 18.663 10.4747 18.1172 10.1909 17.4878C9.87841 16.8338 9.73979 16.1103 9.78839 15.3871C9.79764 15.2787 9.79764 15.1697 9.78839 15.0613L10.1526 15.3871C10.787 16.0138 11.5709 16.4738 12.4276 16.7249C13.0007 16.8783 13.6121 16.9549 14.2044 17.0872C14.4983 17.1549 14.7781 17.2571 15.0439 17.3938C15.4291 17.597 15.7339 17.9286 15.9064 18.3292C15.9716 18.4456 15.9957 18.5805 15.9748 18.7123C15.9539 18.8441 15.8893 18.965 15.7914 19.0556" fill="#001BAB"/>
</svg>
