<svg width="356" height="354" viewBox="0 0 356 354" fill="none" xmlns="http://www.w3.org/2000/svg">
<path opacity="0.52" d="M52.135 303.011C23.784 274.74 5.83497 237.752 1.19563 198.039C-3.44371 158.325 5.49835 118.213 26.5733 84.2003C47.6482 50.1873 79.6215 24.2657 117.314 10.6345C155.006 -2.99667 196.209 -3.53891 234.249 9.09561C272.289 21.7302 304.937 46.8014 326.905 80.2479C348.873 113.694 358.873 153.557 355.286 193.379C351.7 233.2 334.736 270.648 307.143 299.656C279.55 328.663 242.944 347.532 203.255 353.204L196.04 303.008C224.39 298.956 250.539 285.478 270.249 264.758C289.959 244.037 302.076 217.288 304.638 188.842C307.201 160.397 300.057 131.923 284.365 108.031C268.673 84.1398 245.352 66.2311 218.18 57.206C191.007 48.1809 161.575 48.5683 134.651 58.3052C107.727 68.0422 84.8876 86.5584 69.8334 110.854C54.7792 135.151 48.3918 163.803 51.7057 192.171C55.0197 220.539 67.841 246.96 88.0926 267.155L52.135 303.011Z" fill="#001BAB"/>
</svg>
