<svg width="46" height="46" viewBox="0 0 46 46" fill="none" xmlns="http://www.w3.org/2000/svg">
<path d="M37.605 13.5954C37.4761 12.8656 37.1207 12.195 36.5891 11.6787C35.9963 11.3694 35.3409 11.199 34.6725 11.1804C30.6508 10.9496 26.6192 10.9496 22.5975 11.1804C16.675 11.4487 10.7525 12.2345 9.18081 13.3845C8.91104 13.5762 8.72565 13.8645 8.66331 14.1895C8.46228 15.2829 8.37238 16.3939 8.39498 17.5054C8.34617 22.1911 8.57016 26.8757 9.06581 31.5354C9.09905 31.6904 9.19107 31.8266 9.32256 31.9153C9.45405 32.004 9.61478 32.0383 9.77102 32.011C9.92726 31.9837 10.0669 31.897 10.1605 31.769C10.2542 31.641 10.2946 31.4817 10.2733 31.3245C10.0405 29.0449 9.93171 26.7543 9.94748 24.4629C9.94748 21.4729 9.94748 18.2337 10.1391 16.202C10.1276 16.0809 10.1276 15.959 10.1391 15.8379C12.2091 17.2754 15.7741 19.6712 18.7641 21.3962C20.3055 22.3673 22.0262 23.0191 23.8241 23.3129C25.4231 22.7924 26.9022 21.9583 28.175 20.8595C30.739 18.9013 33.1425 16.7414 35.3625 14.4004C35.4264 14.5486 35.4711 14.7019 35.4966 14.8604C35.7356 16.5202 35.857 18.1877 35.8608 19.8629C35.9344 23.1515 35.8064 26.4416 35.4775 29.7145C35.4877 29.8487 35.4877 29.9829 35.4775 30.117H34.6916C32.0083 30.4045 26.22 30.8262 20.9108 31.1712C16.5025 31.4587 12.42 31.6695 10.695 31.7079C10.6052 31.7078 10.5164 31.7258 10.4338 31.7607C10.3511 31.7956 10.2763 31.8467 10.2137 31.9111C10.1512 31.9754 10.1022 32.0516 10.0696 32.1353C10.037 32.2189 10.0216 32.3082 10.0241 32.3979C10.0241 32.5809 10.0968 32.7564 10.2262 32.8858C10.3556 33.0152 10.5311 33.0879 10.7141 33.0879C13.8575 33.0879 24.7058 32.7045 31.2608 32.3404C33.4266 32.2254 35.0941 32.1104 35.9375 32.0145C36.2639 31.9939 36.583 31.9092 36.8766 31.7654C37.073 31.6335 37.2263 31.4469 37.3175 31.2287C37.4516 30.83 37.5475 30.4211 37.605 30.002C38.0343 26.6268 38.2375 23.2266 38.2183 19.8245C38.2269 17.7327 38.0213 15.6454 37.605 13.5954ZM25.1083 20.1887C24.678 20.5177 24.1907 20.7646 23.6708 20.917C23.2031 20.8526 22.7496 20.71 22.3291 20.4954C21.2558 20.0545 19.8566 19.3645 18.3616 18.5787C15.5441 17.237 12.4391 15.512 10.6183 14.5154C13.702 13.7474 16.8706 13.3739 20.0483 13.4037C24.7666 13.1612 29.4942 13.1612 34.2125 13.4037C33.0241 14.4962 31.165 15.972 29.2866 17.352C27.7916 18.4829 26.2775 19.4987 25.1083 20.1887Z" fill="#020202"/>
<path d="M4.94504 6.63761C4.64921 6.20449 4.27157 5.83337 3.83337 5.54511C3.31587 5.20011 2.77921 5.00845 2.24254 4.70178C2.18991 4.63388 2.12361 4.5778 2.04792 4.53715C1.97224 4.49651 1.88886 4.47222 1.80319 4.46586C1.71752 4.4595 1.63147 4.4712 1.55061 4.50022C1.46976 4.52923 1.39589 4.57491 1.33382 4.63429C1.27174 4.69367 1.22282 4.76543 1.19025 4.84492C1.15767 4.92441 1.14215 5.00985 1.1447 5.09572C1.14725 5.18159 1.16781 5.26596 1.20505 5.34338C1.24229 5.4208 1.29538 5.48952 1.36087 5.54511C1.67904 6.21978 2.05598 6.85867 2.49171 7.46178C2.76132 7.7595 3.06159 8.02145 3.39254 8.24761C3.87171 8.61178 4.38921 8.86095 4.86837 9.24428C4.997 9.36842 5.16878 9.43779 5.34754 9.43779C5.5263 9.43779 5.69808 9.36842 5.82671 9.24428C5.89103 9.18018 5.94207 9.10401 5.9769 9.02014C6.01172 8.93627 6.02965 8.84634 6.02965 8.75553C6.02965 8.66472 6.01172 8.5748 5.9769 8.49093C5.94207 8.40706 5.89103 8.33088 5.82671 8.26678C5.58611 7.69653 5.29085 7.15093 4.94504 6.63761ZM2.07004 22.9868C2.34604 23.0251 2.62076 23.0251 2.89421 22.9868C3.33504 22.9868 3.68004 22.7759 4.12087 22.7568C4.20646 22.7799 4.29577 22.7858 4.38365 22.7742C4.47154 22.7626 4.55625 22.7336 4.63288 22.6891C4.70952 22.6445 4.77657 22.5852 4.83014 22.5146C4.88372 22.444 4.92277 22.3634 4.94504 22.2776C4.97108 22.1908 4.97925 22.0996 4.96906 22.0095C4.95887 21.9194 4.93052 21.8323 4.88574 21.7535C4.84096 21.6747 4.78066 21.6058 4.7085 21.5509C4.63633 21.496 4.5538 21.4564 4.46587 21.4343C4.0428 21.1552 3.57652 20.948 3.08587 20.8209C2.7072 20.7076 2.3102 20.6686 1.91671 20.7059C1.43754 20.8209 1.09254 21.0318 0.632539 21.1851C0.533434 21.182 0.435049 21.2029 0.345814 21.2462C0.25658 21.2894 0.179156 21.3536 0.120177 21.4333C0.0611985 21.513 0.0224235 21.6058 0.00717453 21.7038C-0.0080744 21.8018 0.000657476 21.902 0.0326219 21.9959C0.072538 22.1093 0.145944 22.208 0.243136 22.2788C0.340328 22.3497 0.45673 22.3893 0.576955 22.3926C1.04973 22.6507 1.54615 22.8488 2.07004 22.9868ZM4.15921 37.6301C3.66087 37.9176 3.18171 38.1093 2.70254 38.3968C2.4961 38.5085 2.30317 38.6436 2.12754 38.7993C1.94283 38.9457 1.77561 39.1129 1.62921 39.2976C1.29187 39.7627 0.997983 40.2547 0.747539 40.7734C0.692165 40.8288 0.648239 40.8946 0.618271 40.9669C0.588303 41.0393 0.572879 41.1168 0.572879 41.1951C0.572879 41.3533 0.635706 41.5049 0.747539 41.6168C0.859372 41.7286 1.01105 41.7914 1.16921 41.7914C1.32736 41.7914 1.47904 41.7286 1.59087 41.6168C2.12754 41.3484 2.60671 41.2143 3.10504 40.9076C3.30437 40.7926 3.48965 40.6584 3.66087 40.5051C3.83044 40.3488 3.99046 40.1824 4.14004 40.0068C4.50421 39.5468 4.77254 39.0868 5.09837 38.6076C5.16509 38.5449 5.21826 38.4692 5.25461 38.3851C5.29095 38.301 5.30971 38.2104 5.30971 38.1189C5.30971 38.0273 5.29095 37.9367 5.25461 37.8526C5.21826 37.7686 5.16509 37.6928 5.09837 37.6301C4.97074 37.5116 4.80299 37.4457 4.62879 37.4457C4.45459 37.4457 4.28684 37.5116 4.15921 37.6301ZM41.3234 8.59261C41.8155 8.30988 42.2893 7.99619 42.7417 7.65345C42.918 7.50395 43.0842 7.34423 43.24 7.17428C43.3934 7.01584 43.5275 6.84334 43.6425 6.65678C43.9492 6.17761 44.1025 5.69845 44.4092 5.23845C44.5183 5.12136 44.579 4.96726 44.579 4.8072C44.579 4.64714 44.5183 4.49303 44.4092 4.37595C44.2953 4.26811 44.1444 4.20801 43.9875 4.20801C43.8307 4.20801 43.6798 4.26811 43.5659 4.37595C43.007 4.59948 42.4737 4.88221 41.975 5.21928C41.7794 5.35952 41.6051 5.52738 41.4575 5.71761C41.308 5.89011 41.1739 6.07539 41.055 6.27345C40.7484 6.75261 40.5567 7.23178 40.2884 7.73011C40.2071 7.81006 40.1475 7.9094 40.1152 8.01877C40.083 8.12813 40.0792 8.24391 40.1041 8.35517C40.129 8.46643 40.1819 8.5695 40.2578 8.65464C40.3336 8.73978 40.4299 8.80419 40.5375 8.84178C40.6779 8.89036 40.8302 8.89235 40.9718 8.84746C41.1133 8.80257 41.2366 8.71319 41.3234 8.59261ZM45.2717 20.1118C44.7159 20.1118 44.2559 19.8434 43.7 19.7668C43.464 19.7477 43.2269 19.7477 42.9909 19.7668C42.7484 19.7483 42.505 19.7483 42.2625 19.7668C41.6518 19.8664 41.0576 20.0326 40.48 20.2651C40.2998 20.2934 40.138 20.392 40.0303 20.5393C39.9225 20.6866 39.8775 20.8705 39.905 21.0509C39.9166 21.1413 39.9464 21.2284 39.9927 21.3069C40.039 21.3854 40.1008 21.4536 40.1743 21.5074C40.2479 21.5612 40.3316 21.5995 40.4204 21.6198C40.5092 21.6402 40.6012 21.6423 40.6909 21.6259C41.2467 21.6259 41.7642 21.8751 42.32 21.9518C42.7123 21.9901 43.102 21.9901 43.4892 21.9518C44.2041 21.8368 44.8922 21.5972 45.5209 21.2426C45.5991 21.2292 45.6738 21.1997 45.7401 21.156C45.8064 21.1124 45.863 21.0554 45.9062 20.9888C45.9494 20.9222 45.9784 20.8473 45.9912 20.7689C46.0041 20.6906 46.0005 20.6104 45.9809 20.5334C45.9363 20.3876 45.8389 20.2635 45.7078 20.1855C45.5767 20.1076 45.4212 20.0813 45.2717 20.1118ZM42.9717 37.5151C42.7287 37.2715 42.4728 37.0412 42.205 36.8251L41.3425 36.2309C40.6142 35.7901 39.8859 35.4451 39.1384 35.0809C39.065 35.027 38.9813 34.9885 38.8926 34.9679C38.8038 34.9473 38.7118 34.945 38.6221 34.9612C38.5324 34.9773 38.447 35.0116 38.371 35.0618C38.295 35.1121 38.23 35.1773 38.18 35.2534C38.081 35.405 38.0437 35.5887 38.0758 35.7669C38.1079 35.9451 38.2069 36.1042 38.3525 36.2118C38.9467 36.7868 39.445 37.4193 40.0392 37.9943C40.4289 38.3776 40.8442 38.729 41.285 39.0484C42.1003 39.5391 42.9436 39.9736 43.815 40.3518C43.9432 40.4455 44.1026 40.4858 44.2599 40.4644C44.4172 40.4429 44.56 40.3613 44.6584 40.2368C44.7062 40.1731 44.7407 40.1004 44.7599 40.0231C44.7791 39.9457 44.7825 39.8654 44.77 39.7867C44.7575 39.708 44.7293 39.6326 44.6871 39.5651C44.6448 39.4975 44.5894 39.4392 44.5242 39.3934C44.0834 38.7609 43.5275 38.1093 42.9717 37.5151Z" fill="#001BAB"/>
</svg>
