<svg width="36" height="36" viewBox="0 0 36 36" fill="none" xmlns="http://www.w3.org/2000/svg">
<path d="M12.2571 3.56299H24.5084C29.1755 3.56299 32.9676 7.35505 32.9676 12.0222V24.2735C32.9676 26.517 32.0764 28.6686 30.4899 30.255C28.9035 31.8414 26.7519 32.7327 24.5084 32.7327H12.2571C7.58997 32.7327 3.79791 28.9406 3.79791 24.2735V12.0222C3.79791 9.77867 4.68915 7.62704 6.27556 6.04063C7.86197 4.45422 10.0136 3.56299 12.2571 3.56299ZM11.9654 6.47996C10.5729 6.47996 9.2374 7.03314 8.25273 8.0178C7.26806 9.00247 6.71488 10.338 6.71488 11.7305V24.5652C6.71488 27.4675 9.06304 29.8157 11.9654 29.8157H24.8001C26.1926 29.8157 27.5281 29.2625 28.5128 28.2778C29.4974 27.2932 30.0506 25.9577 30.0506 24.5652V11.7305C30.0506 8.82811 27.7025 6.47996 24.8001 6.47996H11.9654ZM26.0398 8.66768C26.5233 8.66768 26.987 8.85976 27.3289 9.20166C27.6708 9.54355 27.8629 10.0073 27.8629 10.4908C27.8629 10.9743 27.6708 11.438 27.3289 11.7799C26.987 12.1218 26.5233 12.3139 26.0398 12.3139C25.5563 12.3139 25.0926 12.1218 24.7507 11.7799C24.4088 11.438 24.2167 10.9743 24.2167 10.4908C24.2167 10.0073 24.4088 9.54355 24.7507 9.20166C25.0926 8.85976 25.5563 8.66768 26.0398 8.66768ZM18.3827 10.8554C20.3168 10.8554 22.1717 11.6237 23.5393 12.9913C24.9069 14.3589 25.6752 16.2138 25.6752 18.1478C25.6752 20.0819 24.9069 21.9368 23.5393 23.3043C22.1717 24.6719 20.3168 25.4402 18.3827 25.4402C16.4487 25.4402 14.5938 24.6719 13.2262 23.3043C11.8586 21.9368 11.0903 20.0819 11.0903 18.1478C11.0903 16.2138 11.8586 14.3589 13.2262 12.9913C14.5938 11.6237 16.4487 10.8554 18.3827 10.8554ZM18.3827 13.7724C17.2223 13.7724 16.1094 14.2334 15.2888 15.0539C14.4683 15.8745 14.0073 16.9874 14.0073 18.1478C14.0073 19.3083 14.4683 20.4212 15.2888 21.2417C16.1094 22.0623 17.2223 22.5233 18.3827 22.5233C19.5432 22.5233 20.6561 22.0623 21.4767 21.2417C22.2972 20.4212 22.7582 19.3083 22.7582 18.1478C22.7582 16.9874 22.2972 15.8745 21.4767 15.0539C20.6561 14.2334 19.5432 13.7724 18.3827 13.7724Z" fill="#001BAB"/>
</svg>
