<svg width="56" height="56" viewBox="0 0 56 56" fill="none" xmlns="http://www.w3.org/2000/svg">
<path fill-rule="evenodd" clip-rule="evenodd" d="M44.9446 9.44324C44.758 5.18724 40.5486 5.79391 39.2 6.62924C38.5466 7.08424 38.0287 7.71191 37.7113 8.44457C37.4675 9.04674 37.406 9.70732 37.5346 10.3441C37.6632 10.9809 37.9762 11.5659 38.4346 12.0262C38.832 12.4892 39.324 12.8616 39.8774 13.1184C40.4309 13.3752 41.0329 13.5104 41.643 13.5149C42.6023 13.3709 43.473 12.8733 44.084 12.1198C44.695 11.3664 45.002 10.4116 44.9446 9.44324ZM41.4563 10.6076C41.266 10.5873 41.0815 10.5294 40.9137 10.4372C40.7459 10.3451 40.598 10.2206 40.4786 10.0709C40.2589 9.91319 40.0895 9.69518 39.991 9.44324C39.893 9.19124 39.851 9.30324 39.8743 9.23324C39.9305 8.79769 40.1084 8.38684 40.3877 8.04791C40.5551 7.86336 40.7737 7.73283 41.0156 7.67293C41.2575 7.61303 41.5117 7.62647 41.7459 7.71155C41.9801 7.79663 42.1837 7.9495 42.3308 8.15067C42.4778 8.35185 42.5617 8.59225 42.5717 8.84124C42.6883 9.65324 42.2917 10.6309 41.4563 10.6076Z" fill="#020202"/>
<path fill-rule="evenodd" clip-rule="evenodd" d="M25.6667 13.909C25.8432 13.8793 26.0145 13.8243 26.1753 13.7457C28.2707 12.7237 28.084 12.467 28.084 12.2804C28.084 11.3284 25.8976 11.025 25.7577 11.0017C25.5333 10.9688 25.3053 10.9688 25.081 11.0017C24.8681 11.0553 24.665 11.1419 24.479 11.2584C22.5003 12.3737 22.547 12.7704 22.6403 13.188C22.7103 14.0957 25.5243 13.9114 25.6643 13.9114M16.709 16.723C16.8477 16.6409 16.9735 16.5387 17.0823 16.4197C18.571 14.7934 18.291 14.5367 18.221 14.3757C17.8943 13.559 15.7103 14.0957 15.6636 14.0957C15.4544 14.1544 15.257 14.2491 15.0803 14.3757C14.9092 14.5048 14.7544 14.6518 14.616 14.8167C13.1273 16.7697 13.7106 17.143 13.8483 17.3507C14.3383 17.8174 16.6646 16.7464 16.709 16.723ZM7.89598 26.4694C8.43265 26.656 8.68698 26.4694 9.98898 24.794C10.1103 24.6307 10.2192 24.4596 10.3156 24.2807C10.4256 24.1016 10.5045 23.9051 10.549 23.6997C11.151 21.3757 10.6866 21.189 10.549 21.0724C9.89565 20.6757 8.22032 22.2134 8.22032 22.3977C8.07098 22.575 7.94654 22.7695 7.84698 22.981C7.73965 23.1926 7.66265 23.4174 7.61598 23.6554C7.05832 26.2827 7.68598 26.3994 7.89598 26.4694ZM7.87265 34.818C7.89598 34.608 7.89598 34.3988 7.87265 34.1904C7.85128 33.9907 7.80422 33.7947 7.73265 33.607C6.91832 31.283 6.50065 31.4464 6.29065 31.4464C5.54632 31.4464 5.05865 33.3994 4.98865 33.7727C4.95129 34.0116 4.95129 34.2548 4.98865 34.4937C5.03532 34.7255 5.10532 34.9503 5.19865 35.168C6.19732 37.632 6.80165 37.331 7.01165 37.2844C7.22165 37.2377 7.73498 37.191 7.87265 34.818ZM9.87232 42.9334C9.82137 42.7878 9.74206 42.6538 9.63898 42.539C8.19932 40.8194 7.77932 41.2137 7.73265 41.2137C6.98832 41.447 7.08165 43.54 7.08165 43.54C7.0878 43.7375 7.144 43.9302 7.24498 44.1C7.32747 44.2788 7.43772 44.4434 7.57165 44.5877C9.03465 46.0974 9.54798 45.913 9.89565 45.703C10.2433 45.493 9.89565 42.98 9.87232 42.9334ZM15.3393 50.3767C15.078 50.0971 14.7797 49.8545 14.4526 49.6557C14.1283 49.4574 11.942 48.377 11.431 48.9814C10.9176 49.588 12.4763 51.5877 12.523 51.611C12.6863 51.821 12.873 52.0069 13.083 52.1687C13.3054 52.3165 13.538 52.4487 13.7807 52.5654C16.408 53.7274 16.7113 52.983 16.8257 52.752C16.9423 52.5187 17.1056 52.1454 15.3393 50.3767ZM45.5047 46.2607C45.3601 46.397 45.2274 46.5453 45.108 46.704C44.9944 46.8752 44.8933 47.0533 44.8046 47.2384C43.8993 49.448 44.2937 49.5647 44.4547 49.7724C45.0846 50.3557 46.991 48.9114 47.0377 48.888C47.2141 48.7358 47.3639 48.5552 47.481 48.3537C47.6163 48.1593 47.7252 47.95 47.8077 47.726C48.6663 45.262 48.0153 45.0754 47.8077 44.9587C47.5977 44.842 47.0143 44.7954 45.5047 46.2607ZM49.4573 33.586C48.8973 33.586 48.6896 33.586 48.0153 36.3767C48.0153 36.6334 47.8986 36.89 47.852 37.1677C47.8053 37.4454 47.852 37.7044 47.852 37.9587C47.852 40.8894 48.342 40.796 48.5986 40.866C49.4573 41.0994 50.4117 38.9107 50.596 38.3764C50.68 38.0808 50.7422 37.7783 50.7826 37.4687C50.817 37.1601 50.817 36.8486 50.7826 36.54C50.4093 33.446 49.7373 33.586 49.4573 33.586ZM50.806 26.6794C50.7275 26.3885 50.618 26.1069 50.4793 25.8394C49.0396 23.072 48.3863 23.5154 48.1553 23.5154C47.922 23.5154 47.4553 23.9587 47.8987 26.6327C47.95 27.076 48.0596 27.517 48.2253 27.9347C48.3886 28.3524 49.504 30.7487 50.365 30.492C50.645 30.492 51.2027 30.3054 50.9926 27.468C50.9692 27.1967 50.9063 26.9302 50.806 26.677" fill="#001BAB"/>
<path fill-rule="evenodd" clip-rule="evenodd" d="M33.6187 14.7001C33.9967 15.747 34.4462 16.7628 34.9673 17.7474C35.574 18.855 36.2717 19.9019 37.0603 20.8881C38.2286 22.2881 39.4691 23.6212 40.782 24.8874C40.8496 24.9696 40.9336 25.0368 41.0286 25.0848C41.1236 25.1327 41.2276 25.1604 41.3339 25.1661C41.4401 25.1717 41.5464 25.1552 41.646 25.1176C41.7455 25.08 41.8362 25.0221 41.9122 24.9476C41.9881 24.873 42.0478 24.7835 42.0873 24.6847C42.1269 24.5859 42.1455 24.48 42.1419 24.3736C42.1383 24.2672 42.1126 24.1628 42.0665 24.0669C42.0204 23.9709 41.9548 23.8857 41.874 23.8164C40.6697 22.5432 39.5512 21.1916 38.5257 19.7704C37.8646 18.8559 37.303 17.8735 36.8503 16.8398C36.4258 15.9532 36.0686 15.0359 35.7817 14.0958C35.51 13.1346 35.3073 12.1552 35.175 11.1651C35.1262 10.4917 35.1262 9.81556 35.175 9.14211C35.182 8.54711 35.2823 7.95911 35.4783 7.39677C35.9257 5.94746 36.8921 4.71417 38.1924 3.93315C39.4927 3.15213 41.0354 2.87829 42.525 3.16411C44.0165 3.35542 45.3766 4.11532 46.3213 5.28525C47.266 6.45518 47.7224 7.94475 47.5953 9.44311C47.4896 11.8285 47.0109 14.1825 46.1767 16.4198C45.3295 18.6434 44.0131 20.6585 42.3173 22.3278C42.1506 22.485 42.053 22.702 42.0463 22.931C42.0395 23.1601 42.124 23.3825 42.2812 23.5493C42.4384 23.716 42.6553 23.8136 42.8844 23.8203C43.1135 23.8271 43.3359 23.7426 43.5027 23.5854C45.4872 21.8239 47.0733 19.6594 48.1553 17.2364C49.1867 14.8378 49.8447 12.2968 50.1083 9.69977C50.4289 7.51544 49.8766 5.29273 48.571 3.51245C47.2654 1.73217 45.3114 0.537465 43.1317 0.186774C40.9728 -0.262248 38.724 0.111484 36.8264 1.23467C34.9288 2.35786 33.5193 4.14946 32.8743 6.25811C32.6503 6.95811 32.5313 7.68611 32.5243 8.42111C32.459 9.42911 32.4987 10.4441 32.641 11.4451C32.8743 12.5573 33.2002 13.6423 33.6187 14.7001Z" fill="#020202"/>
<path fill-rule="evenodd" clip-rule="evenodd" d="M47.04 33.0751C47.145 31.3717 47.068 29.6661 46.8066 27.9814C46.5707 26.8354 46.1872 25.7248 45.6656 24.6774C45.6204 24.5734 45.5546 24.4796 45.4722 24.4018C45.3897 24.3239 45.2924 24.2635 45.186 24.2242C45.0796 24.185 44.9663 24.1677 44.8531 24.1734C44.7398 24.1791 44.6289 24.2077 44.527 24.2574C44.32 24.3537 44.1597 24.5281 44.081 24.7424C44.0023 24.9566 44.0116 25.1933 44.107 25.4007C44.6436 26.5511 44.982 27.7854 45.108 29.0501C45.1914 30.2425 45.1914 31.4393 45.108 32.6317C42.7816 32.9117 40.4576 33.2851 38.1313 33.5394H37.618C37.6027 32.6834 37.5404 31.8289 37.4313 30.9797C37.2045 29.3962 36.8231 27.8386 36.2926 26.3294C35.0344 22.867 33.2373 19.625 30.968 16.7231C30.8884 16.6272 30.7885 16.5503 30.6755 16.4978C30.5625 16.4454 30.4392 16.4187 30.3146 16.4197C30.443 16.2774 30.5245 16.099 30.548 15.9087C30.5536 15.8093 30.5393 15.7098 30.5059 15.616C30.4726 15.5222 30.4208 15.436 30.3536 15.3625C30.2864 15.289 30.2052 15.2297 30.1148 15.1881C30.0243 15.1465 29.9265 15.1233 29.827 15.1201C26.3766 14.8268 22.9225 15.6408 19.9663 17.4441C17.133 19.3274 14.7507 21.8133 12.9896 24.7241C10.7846 28.3555 9.88956 32.6325 10.4533 36.8434C10.6615 39.0166 11.3653 41.1131 12.5104 42.9717C13.6555 44.8304 15.2116 46.4018 17.059 47.5651C19.9962 49.2194 23.272 50.1821 26.6373 50.3798C30.0025 50.5775 33.3686 50.0051 36.4793 48.7061C39.5829 47.4306 42.2407 45.2669 44.1191 42.4865C45.9974 39.7061 47.0128 36.4328 47.0376 33.0774M33.5696 27.1927C33.9538 28.6021 34.2642 30.0285 34.5006 31.4721C34.5006 32.2397 34.664 33.0074 34.7573 33.7984C32.431 33.9384 30.2446 33.7984 27.9416 33.7984C26.5696 33.7984 25.1743 33.7984 23.8023 33.6351C23.8023 33.1451 23.8023 32.6341 23.9656 32.1464C24.2176 30.5768 24.5583 29.026 24.9876 27.4937C26.1263 23.3077 28.8726 16.5411 29.6403 17.6564C31.385 20.6381 32.7074 23.8475 33.5696 27.1927ZM21.0116 19.2127C22.9961 17.9056 25.2721 17.1074 27.6383 16.8887C25.378 19.8932 23.5758 23.2162 22.2903 26.7494C21.7183 28.3755 21.2904 30.0487 21.0116 31.7497V33.6117C18.3628 33.3932 15.7239 33.0671 13.1016 32.6341C13.2323 30.3474 13.8763 28.1237 14.987 26.1241C16.4528 23.3992 18.5117 21.0359 21.0116 19.2127ZM13.104 36.6334C13.0047 35.94 12.9501 35.2408 12.9406 34.5404C15.477 35.1681 18.0833 35.6791 20.734 36.0734V36.9601C20.8133 40.2967 21.2893 43.6147 22.1526 46.8417C20.8768 46.4522 19.6512 45.9142 18.501 45.2387C17.0172 44.3015 15.765 43.0404 14.8384 41.55C13.9117 40.0596 13.3347 38.3787 13.1506 36.6334H13.104ZM24.0356 47.3084C23.4243 43.9178 23.1903 40.4699 23.338 37.0277V36.4444C25.2 36.6311 27.0596 36.7711 28.9216 36.7711C30.7836 36.7711 32.8743 36.6077 34.804 36.4211C34.9673 39.6877 34.741 42.9591 34.1296 46.1674C34.0583 46.3633 34.0583 46.5781 34.1296 46.7741C30.8861 47.8342 27.42 48.0186 24.0823 47.3084H24.0356ZM36.015 46.1441C36.9982 42.8336 37.545 39.4088 37.6413 35.9567L38.388 35.8167C40.5253 35.3524 42.6183 34.7947 44.758 34.3304C44.4675 36.8879 43.5117 39.3245 41.9858 41.3974C40.4599 43.4702 38.4173 45.1069 36.0616 46.1441H36.015Z" fill="#020202"/>
<path fill-rule="evenodd" clip-rule="evenodd" d="M23.5947 53.2399L22.848 53.0532C22.5929 53.0299 22.3378 53.0299 22.0827 53.0532C19.2453 53.0532 19.2687 53.5199 19.1987 53.7509C18.9653 54.5886 21.2917 55.6572 21.525 55.7739C21.8066 55.8906 22.1013 55.9606 22.4093 55.9839C22.7189 56.0119 23.0285 56.0041 23.338 55.9606C26.3853 55.7039 26.2687 54.8896 26.2687 54.6119C26.222 53.9119 25.942 53.8886 23.5947 53.2399ZM31.99 52.6799H31.3857C31.1847 52.7164 30.9893 52.7792 30.8047 52.8666C28.4783 53.7976 28.6883 54.1919 28.6883 54.4019C28.6883 55.1696 30.7347 55.5406 31.2223 55.5872C31.4635 55.623 31.7046 55.623 31.9457 55.5872C32.1868 55.5312 32.4186 55.4457 32.641 55.3306C34.9673 54.1452 34.713 53.4942 34.643 53.2842C34.433 52.7266 34.1063 52.6566 31.99 52.6799ZM39.9933 50.7269C39.6348 50.7845 39.283 50.8783 38.9433 51.0069C38.605 51.1329 36.5027 52.3089 36.6193 53.0999C36.736 53.8909 39.34 53.7742 39.3867 53.7742C39.6496 53.754 39.9055 53.6996 40.1543 53.6109C40.4095 53.5362 40.6498 53.4273 40.8753 53.2842C42.9917 51.9822 42.9683 51.3312 42.735 50.9602C42.5017 50.5892 42.4573 50.2836 39.9933 50.7269Z" fill="#001BAB"/>
</svg>
