<svg width="64" height="64" viewBox="0 0 64 64" fill="none" xmlns="http://www.w3.org/2000/svg">
<path fill-rule="evenodd" clip-rule="evenodd" d="M21.3066 52.4267C20.959 51.776 20.5376 51.1675 20.0506 50.6133C19.3747 49.915 18.6214 49.2959 17.8053 48.768C18.7135 47.8289 19.41 46.706 19.848 45.4751C20.2859 44.2442 20.455 42.9338 20.3439 41.632C20.3291 39.4043 19.432 37.2733 17.849 35.7058C16.266 34.1384 14.1263 33.2622 11.8986 33.2693C9.51613 33.2114 7.20626 34.0918 5.46687 35.721C3.72748 37.3501 2.69787 39.5975 2.59994 41.9787C2.55843 43.4792 2.95301 44.9595 3.73587 46.2403C4.51873 47.5211 5.65626 48.5473 7.01061 49.1947C5.88705 49.7902 4.82661 50.4853 3.82928 51.28C2.87781 52.1009 2.04972 53.0547 1.37061 54.112C0.761161 55.0354 0.343281 56.0718 0.141734 57.1597C-0.0598135 58.2476 -0.0409261 59.3649 0.197277 60.4453C0.197048 60.562 0.220757 60.6775 0.266937 60.7847C0.313117 60.8919 0.380787 60.9884 0.465764 61.0684C0.55074 61.1484 0.651218 61.2101 0.760985 61.2497C0.870753 61.2893 0.987477 61.306 1.10394 61.2987C1.32804 61.2655 1.53072 61.1472 1.6698 60.9684C1.80888 60.7896 1.87364 60.564 1.85061 60.3387C1.83994 59.096 2.21328 57.8853 2.91994 56.864C3.60844 55.8034 4.39597 54.8105 5.27194 53.8987C6.49855 52.5356 7.76396 51.2079 9.06661 49.9173C9.88439 50.12 10.7128 50.2356 11.5519 50.264C11.7307 50.2321 11.8925 50.1384 12.0091 49.9992C12.1257 49.86 12.1896 49.6842 12.1896 49.5027C12.1896 49.3211 12.1257 49.1453 12.0091 49.0061C11.8925 48.8669 11.7307 48.7732 11.5519 48.7413C6.82394 48.2613 4.76528 45.2667 5.00528 42.088C5.1874 40.4026 6.01621 38.8535 7.31732 37.7667C8.61842 36.68 10.2903 36.1403 11.9813 36.2613C13.524 36.2326 15.0156 36.8145 16.1314 37.8803C17.2471 38.9461 17.8967 40.4096 17.9386 41.952C18.2569 43.5168 17.9483 45.1441 17.079 46.4836C16.2098 47.8232 14.8494 48.7679 13.2906 49.1147C13.0612 49.1409 12.8512 49.2562 12.7061 49.4358C12.5609 49.6154 12.4921 49.8448 12.5146 50.0747C12.5531 50.2964 12.6726 50.496 12.8501 50.6345C13.0275 50.773 13.2501 50.8405 13.4746 50.824C14.4079 50.7227 15.3146 50.4507 16.1493 50.024C16.7893 50.7778 17.3768 51.5707 17.9119 52.4027C18.2319 52.8827 18.5253 53.3893 18.7919 53.8693C19.0613 54.352 19.3813 54.8613 19.6506 55.368C20.3084 56.632 20.8595 57.9413 21.3039 59.296C21.3355 59.4337 21.3997 59.5617 21.4911 59.6693C21.5825 59.777 21.6985 59.861 21.8293 59.9143C21.9601 59.9677 22.1017 59.9888 22.2424 59.9758C22.383 59.9629 22.5185 59.9163 22.6373 59.84C22.7811 59.7464 22.8923 59.6104 22.9554 59.4508C23.0185 59.2912 23.0303 59.116 22.9893 58.9493C22.9005 57.3912 22.6321 55.8485 22.1893 54.352C21.9493 53.6853 21.6551 53.0418 21.3066 52.4267ZM63.2346 54.352C63.0135 53.6886 62.736 53.0454 62.4053 52.4293C62.0596 51.8153 61.6473 51.2411 61.1759 50.7173C60.4998 50.0199 59.7466 49.4017 58.9306 48.8747C59.8628 47.9472 60.584 46.8296 61.0451 45.5982C61.5062 44.3667 61.6964 43.0503 61.6026 41.7387C61.5878 39.5114 60.691 37.3809 59.1086 35.8135C57.5262 34.2461 55.3872 33.3696 53.1599 33.376C50.7855 33.3023 48.4767 34.1615 46.7281 35.7695C44.9796 37.3775 43.9303 39.6064 43.8053 41.9787C43.7403 43.4604 44.1043 44.9293 44.8536 46.2093C45.6028 47.4893 46.7055 48.5259 48.0293 49.1947C46.8986 49.7831 45.8382 50.4782 44.8479 51.28C43.8879 52.0933 43.0613 53.048 42.3893 54.112C41.7798 55.0354 41.3619 56.0718 41.1604 57.1597C40.9589 58.2476 40.9777 59.3649 41.2159 60.4453C41.2677 60.6495 41.3931 60.8274 41.5681 60.9447C41.7431 61.062 41.9553 61.1104 42.1638 61.0806C42.3724 61.0508 42.5625 60.9449 42.6977 60.7833C42.8329 60.6217 42.9035 60.4159 42.8959 60.2053C42.9083 58.9636 43.2908 57.7538 43.9946 56.7307C44.6577 55.7173 45.4053 54.7733 46.2373 53.8987C47.4639 52.5356 48.7293 51.2079 50.0319 49.9173C50.8497 50.12 51.6782 50.2356 52.5173 50.264C52.696 50.2321 52.8579 50.1384 52.9744 49.9992C53.091 49.86 53.1549 49.6842 53.1549 49.5027C53.1549 49.3211 53.091 49.1453 52.9744 49.0061C52.8579 48.8669 52.696 48.7732 52.5173 48.7413C48.0293 48.2613 45.8906 45.2667 46.1306 42.088C46.3127 40.4026 47.1416 38.8535 48.4427 37.7667C49.7438 36.68 51.4157 36.1403 53.1066 36.2613C54.6493 36.2326 56.141 36.8145 57.2567 37.8803C58.3725 38.9461 59.022 40.4096 59.0639 41.952C59.3794 43.5319 59.0562 45.1725 58.1652 46.5148C57.2741 47.8571 55.8877 48.7919 54.3093 49.1147C54.1689 49.1308 54.0347 49.1811 53.9183 49.2611C53.8019 49.3412 53.707 49.4485 53.6417 49.5738C53.5764 49.6991 53.5429 49.8384 53.544 49.9797C53.5451 50.1209 53.5808 50.2597 53.6479 50.384C53.7293 50.5336 53.8535 50.6554 54.0046 50.7338C54.1557 50.8122 54.3268 50.8436 54.4959 50.824C55.4293 50.7227 56.3333 50.4507 57.1679 50.024C57.8079 50.776 58.3955 51.5689 58.9306 52.4027C59.2506 52.8827 59.5439 53.3893 59.8106 53.8693C60.0799 54.352 60.3999 54.8613 60.6693 55.368C61.3182 56.6338 61.8604 57.9431 62.2959 59.296C62.3471 59.517 62.4816 59.7097 62.6714 59.8339C62.8612 59.9581 63.0916 60.0042 63.3146 59.9627C63.4252 59.9404 63.5303 59.8965 63.6238 59.8334C63.7173 59.7703 63.7973 59.6893 63.8593 59.5951C63.9213 59.5008 63.964 59.3952 63.985 59.2844C64.0059 59.1736 64.0046 59.0597 63.9813 58.9493C63.9099 57.3933 63.6593 55.8507 63.2346 54.352ZM34.4799 17.0747C34.0799 17.8747 33.7333 18.6773 33.3066 19.7467L32.4213 22.072L31.8079 23.888L31.4079 25.224L29.6959 23.704L27.5599 21.832L24.1653 18.704C24.0958 18.633 24.0128 18.5767 23.9212 18.5382C23.8296 18.4997 23.7313 18.4799 23.6319 18.4799C23.5326 18.4799 23.4343 18.4997 23.3427 18.5382C23.2511 18.5767 23.1681 18.633 23.0986 18.704C23.0272 18.7736 22.9705 18.8567 22.9318 18.9485C22.8931 19.0404 22.8731 19.139 22.8731 19.2387C22.8731 19.3383 22.8931 19.437 22.9318 19.5288C22.9705 19.6206 23.0272 19.7038 23.0986 19.7733L26.2506 23.248L28.1999 25.28L30.1253 27.336C30.3919 27.6027 30.6586 28.296 30.8986 28.512C31.1595 28.7369 31.4879 28.8683 31.8319 28.8853C32.0538 28.8852 32.2728 28.8347 32.4723 28.7377C32.6719 28.6407 32.8468 28.4997 32.9839 28.3253C33.2862 27.9609 33.5262 27.56 33.7039 27.1227C34.0506 26.3493 34.2906 25.4133 34.5066 24.824L35.1466 23.008L36.0293 20.816L38.2746 15.872C39.4017 13.6764 40.6844 11.5742 42.1226 9.56533C43.5536 7.60317 45.2034 5.81029 47.0399 4.22133C47.2168 4.07952 47.33 3.87329 47.3547 3.648C47.3795 3.4227 47.3138 3.1968 47.1719 3.01999C47.0301 2.84318 46.8239 2.72994 46.5986 2.70519C46.3733 2.68043 46.1474 2.74619 45.9706 2.88799C43.8943 4.43863 42.0108 6.23178 40.3599 8.22933C38.6941 10.2215 37.1839 12.3389 35.8426 14.5627C35.3093 15.496 34.8826 16.2747 34.4799 17.0747Z" fill="#020202"/>
<path fill-rule="evenodd" clip-rule="evenodd" d="M52.8639 17.4479C52.3693 16.1768 51.7142 14.9742 50.9146 13.8693C49.7607 12.2876 48.5206 10.7706 47.1999 9.32528C47.0701 9.18162 46.8896 9.09381 46.6964 9.08027C46.5032 9.06673 46.3123 9.12852 46.1637 9.25266C46.015 9.37681 45.9202 9.55369 45.8992 9.7462C45.8781 9.93871 45.9323 10.1319 46.0506 10.2853C47.2843 11.734 48.4355 13.2511 49.4986 14.8293C50.1919 15.8399 50.7493 16.9359 51.1546 18.0906C51.8608 19.8541 52.0296 21.7871 51.6395 23.6463C51.2495 25.5055 50.3181 27.2077 48.9626 28.5386C46.722 30.4503 44.1106 31.8786 41.2922 32.7339C38.4738 33.5893 35.5091 33.8532 32.5839 33.5093C24.7253 33.1093 19.4106 31.1306 16.2026 28.3519C14.7847 27.2529 13.7306 25.7524 13.1774 24.0459C12.6243 22.3393 12.5977 20.5058 13.1013 18.7839C15.1066 11.9973 24.3546 6.25061 37.7946 8.30928C37.9068 8.32854 38.0218 8.32551 38.1328 8.30035C38.2439 8.27519 38.3489 8.22841 38.4419 8.16266C38.5349 8.09692 38.614 8.01351 38.6747 7.91718C38.7355 7.82086 38.7767 7.71352 38.7959 7.60128C38.8152 7.48905 38.8121 7.37411 38.787 7.26305C38.7618 7.15199 38.715 7.04697 38.6493 6.95398C38.5836 6.861 38.5001 6.78188 38.4038 6.72113C38.3075 6.66039 38.2002 6.61921 38.0879 6.59995C23.2533 3.92795 13.0479 10.5279 10.6133 18.0106C8.95992 23.1146 10.6133 28.6986 16.9999 32.4666C21.7489 34.9685 27.0246 36.3057 32.3919 36.3679C35.71 36.6496 39.0504 36.2392 42.2016 35.1628C45.3529 34.0864 48.2462 32.3674 50.6986 30.1146C52.2703 28.4532 53.3145 26.3634 53.6994 24.109C54.0843 21.8546 53.7953 19.5367 52.8639 17.4479Z" fill="#001BAB"/>
</svg>
