<svg width="56" height="56" viewBox="0 0 56 56" fill="none" xmlns="http://www.w3.org/2000/svg">
<path d="M55.6967 16.8701C55.72 14.1619 55.6034 11.4591 55.3467 8.76177C55.1367 6.59643 55.3467 3.3111 53.8534 2.14677C52.2308 1.06109 50.3526 0.418401 48.405 0.282434C40.3796 -0.153543 32.3346 -0.0834037 24.318 0.492434C23.0859 0.699317 21.9432 1.26785 21.035 2.12577C19.264 4.28877 19.1707 16.6811 19.124 19.4764C19.124 19.6868 19.2076 19.8886 19.3564 20.0374C19.5052 20.1862 19.707 20.2698 19.9174 20.2698C20.1278 20.2698 20.3296 20.1862 20.4783 20.0374C20.6271 19.8886 20.7107 19.6868 20.7107 19.4764C20.7107 17.4744 21.315 4.91877 22.6194 3.42777C23.1934 3.01243 23.856 2.73477 24.5514 2.6111C28.0467 2.2401 45.5164 2.6111 48.055 2.86777C48.9806 2.97199 49.889 3.15866 50.7804 3.42777C52.8757 4.1511 52.2947 4.31443 52.8057 8.97177C53.4221 13.291 53.5707 17.664 53.249 22.0151C53.1995 23.4508 53.012 24.8783 52.689 26.2781C52.2224 25.9514 53.9957 27.2348 41.37 28.3968C41.1844 28.3968 41.0063 28.4705 40.875 28.6018C40.7438 28.7331 40.67 28.9111 40.67 29.0968C40.67 29.2824 40.7438 29.4605 40.875 29.5917C41.0063 29.723 41.1844 29.7968 41.37 29.7968L43.1854 29.6568C43.05 31.1034 43.456 32.5454 44.3287 33.7098C43.1077 33.7904 41.9018 34.0256 40.74 34.4098C40.5818 34.4419 40.4395 34.5277 40.3373 34.6528C40.2351 34.7778 40.1793 34.9343 40.1793 35.0958C40.1793 35.2572 40.2351 35.4137 40.3373 35.5388C40.4395 35.6638 40.5818 35.7496 40.74 35.7818C43.136 36.6334 45.7523 36.6334 48.1484 35.7818C48.3311 35.7485 48.4964 35.6521 48.6154 35.5095C48.7344 35.3669 48.7996 35.187 48.7996 35.0013C48.7996 34.8155 48.7344 34.6356 48.6154 34.493C48.4964 34.3504 48.3311 34.254 48.1484 34.2208L46.4007 33.9641C46.4939 32.4499 46.0926 30.9465 45.2574 29.6801C46.984 29.5168 53.389 28.9568 54.3434 27.5124C55.2977 26.0681 55.6734 18.6178 55.6967 16.8701Z" fill="#020202"/>
<path d="M38.2481 17.0077C38.7769 17.087 39.2817 17.2426 39.7624 17.4744C41.0837 18.2158 42.1359 19.357 42.7677 20.734C42.7677 21.224 44.5364 21.364 44.5364 20.5007C44.2365 19.2676 43.6618 18.1183 42.8553 17.1385C42.0489 16.1587 41.0314 15.3738 39.8791 14.8424C44.5364 11.8137 42.4644 3.9877 36.8271 4.3587C35.5454 4.27572 34.2706 4.60405 33.1885 5.29588C32.1064 5.98771 31.2733 7.0069 30.8106 8.20507C30.348 9.40323 30.2799 10.7178 30.6162 11.9574C30.9526 13.1969 31.6759 14.2967 32.6807 15.0967C32.9841 15.3067 32.9374 15.0967 32.1207 15.68C31.2323 16.2042 30.4601 16.9042 29.8515 17.7371C29.2429 18.57 28.8106 19.5183 28.5811 20.524C28.5811 21.5974 29.3511 21.644 30.2144 21.0374C30.8384 19.5067 31.9968 18.2546 33.4743 17.5135C34.9518 16.7724 36.6481 16.5926 38.2481 17.0077ZM32.6807 12.1637C31.9807 9.4617 33.3807 7.17736 36.8504 6.9907C37.2831 6.97013 37.7154 7.04062 38.1192 7.19759C38.523 7.35456 38.8894 7.59453 39.1946 7.90197C39.4999 8.20942 39.7372 8.5775 39.8913 8.98243C40.0453 9.38735 40.1127 9.8201 40.0891 10.2527C40.3691 14.9124 33.7051 15.9134 32.6807 12.1637Z" fill="#001BAB"/>
<path d="M48.6827 21.9451C44.0254 21.5018 27.16 21.9451 26.6724 21.9451C26.5115 21.9748 26.3662 22.06 26.2615 22.1857C26.1569 22.3114 26.0996 22.4698 26.0996 22.6334C26.0996 22.797 26.1569 22.9554 26.2615 23.0811C26.3662 23.2069 26.5115 23.292 26.6724 23.3218C33.9968 23.8557 41.3463 23.957 48.6827 23.6251C50.176 23.6251 51.0114 23.9261 51.0114 23.0884C51.4547 21.9218 50.0337 22.0151 48.6827 21.9451ZM15.701 23.9028C0.140034 25.1838 3.40203 43.7711 13.37 42.7934C13.4833 42.8121 13.5992 42.8058 13.7097 42.7752C13.8203 42.7445 13.9229 42.6902 14.0104 42.6159C14.0979 42.5417 14.1681 42.4493 14.2163 42.3452C14.2645 42.241 14.2895 42.1277 14.2895 42.0129C14.2895 41.8982 14.2645 41.7848 14.2163 41.6807C14.1681 41.5765 14.0979 41.4841 14.0104 41.4099C13.9229 41.3356 13.8203 41.2813 13.7097 41.2507C13.5992 41.22 13.4833 41.2138 13.37 41.2324C5.8007 41.6058 3.6587 27.2558 16.002 26.5324C23.9004 25.8348 26.439 39.2304 16.002 41.6058C15.8446 41.6371 15.7027 41.7215 15.6001 41.845C15.4975 41.9685 15.4405 42.1235 15.4386 42.284C15.4367 42.4445 15.49 42.6008 15.5896 42.7267C15.6892 42.8525 15.829 42.9404 15.9857 42.9754C16.0755 42.9949 16.1683 42.9965 16.2587 42.9801C29.2087 40.8591 26.7657 23.2728 15.701 23.9028Z" fill="#020202"/>
<path d="M18.704 35.315C18.704 34.825 18.2373 33.243 17.3763 34.524C16.7261 35.1773 16.0354 35.7832 15.3043 36.3417C14.3819 35.805 13.4268 35.3306 12.439 34.9183C12.2057 34.9183 11.9023 35.0583 11.879 35.4083C11.9324 36.0309 12.1658 36.6244 12.5507 37.1166C12.9356 37.6088 13.4554 37.9784 14.0467 38.1803C14.5787 38.3577 15.1457 38.4067 15.701 38.3203C17.3763 37.9703 18.704 35.525 18.704 35.315ZM8.99267 42.9333C6.94738 43.7025 5.12857 44.974 3.70382 46.6308C2.27907 48.2876 1.29421 50.2763 0.839999 52.4137C0.676666 53.1137 0.513332 53.9747 0.349999 54.9523C0.313979 55.0455 0.298295 55.1452 0.304 55.2449C0.309706 55.3446 0.336668 55.4419 0.383078 55.5303C0.429488 55.6187 0.494271 55.6961 0.573079 55.7574C0.651887 55.8187 0.742897 55.8624 0.839999 55.8857C1.68 56.1167 1.65667 55.2557 2.67867 53.1347C3.39019 51.8151 4.16819 50.5324 5.00967 49.2917C6.05988 47.3116 7.61926 45.6475 9.527 44.471C9.72004 44.3915 9.8753 44.2411 9.96089 44.0507C10.0465 43.8602 10.0559 43.6443 9.98718 43.4471C9.91848 43.25 9.77688 43.0866 9.59149 42.9906C9.40609 42.8947 9.19097 42.8733 8.99033 42.931M36.0127 29.0033C35.4187 28.7103 34.7652 28.5579 34.1028 28.5579C33.4405 28.5579 32.787 28.7103 32.193 29.0033C29.3978 31.6141 26.7382 34.3664 24.2247 37.2493C24.1557 37.3076 24.0989 37.3788 24.0575 37.459C24.0161 37.5391 23.9909 37.6267 23.9833 37.7166C23.9757 37.8065 23.9859 37.897 24.0133 37.983C24.0407 38.069 24.0848 38.1487 24.143 38.2177C24.2012 38.2866 24.2724 38.3434 24.3526 38.3848C24.4328 38.4262 24.5203 38.4515 24.6103 38.459C24.7002 38.4666 24.7907 38.4564 24.8767 38.429C24.9627 38.4016 25.0424 38.3576 25.1113 38.2993C27.7402 35.7762 30.4967 33.3993 33.3807 31.1687C33.684 31.0053 36.036 30.6787 35.2427 33.2897C34.7037 34.8373 33.9681 36.3092 33.054 37.6693C29.1643 43.9343 27.72 44.3777 27.6733 46.7997C27.6733 48.3607 28.4667 50.3393 28.6067 55.209C28.622 55.4083 28.712 55.5945 28.8586 55.7303C29.0053 55.8661 29.1978 55.9415 29.3977 55.9415C29.5975 55.9415 29.7901 55.8661 29.9367 55.7303C30.0834 55.5945 30.1733 55.4083 30.1887 55.209C30.3053 50.7593 29.6753 47.964 29.7687 46.893C29.8853 45.3763 31.913 44.2377 35.266 39.0903C36.3352 37.5249 37.1744 35.8143 37.758 34.0107C38.2013 32.2887 37.7347 29.54 36.0127 29.0033Z" fill="#020202"/>
</svg>
