<svg width="50" height="50" viewBox="0 0 50 50" fill="none" xmlns="http://www.w3.org/2000/svg">
<path d="M40.4313 22.3271C40.4008 22.1906 40.3315 22.0657 40.2318 21.9675C40.1321 21.8693 40.0061 21.802 39.8691 21.7736C39.7321 21.7453 39.5898 21.757 39.4593 21.8076C39.3288 21.8581 39.2156 21.9452 39.1334 22.0584C39.0789 22.1364 39.0406 22.2245 39.021 22.3176C39.0013 22.4106 39.0005 22.5067 39.0188 22.6001C39.3021 24.7105 39.4209 26.8438 39.3729 28.9751C39.3729 35.0209 38.8104 42.4355 38.7896 44.223C38.7896 44.8251 38.125 45.0313 37.4188 45.3021C36.0688 45.8021 34.3042 46.0292 33.2646 46.3209C30.9015 46.9156 28.4884 47.2908 26.0563 47.4417C22.4021 47.6917 18.7021 47.5667 14.9021 47.4417C13.2417 47.4417 10.1667 47.5667 7.42295 47.3376C5.98236 47.3144 4.56462 46.9737 3.27086 46.3396C3.15281 45.916 3.06253 45.4869 3.00003 45.0521C2.73701 42.291 2.64656 39.5162 2.7292 36.7438C2.7292 30.8855 3.1042 24.1146 3.43753 20.9146C3.46253 19.1785 3.62156 17.4549 3.91461 15.7438C4.12711 14.8188 4.69378 14.0146 5.49378 13.5001C7.97927 12.4516 10.6463 11.9009 13.3438 11.8792C18.7459 11.5251 24.6854 11.8792 25.9959 11.8792C26.1423 11.85 26.2741 11.7709 26.3688 11.6554C26.4635 11.5399 26.5152 11.3952 26.5152 11.2459C26.5152 11.0966 26.4635 10.9518 26.3688 10.8364C26.2741 10.7209 26.1423 10.6418 25.9959 10.6126C21.0455 10.2531 16.0774 10.2044 11.1209 10.4667C8.87128 10.5413 6.65722 11.0492 4.60003 11.9626C3.993 12.3307 3.46526 12.816 3.04751 13.39C2.62976 13.9641 2.33035 14.6155 2.1667 15.3063C1.77851 17.1329 1.53539 18.9873 1.43961 20.8521C0.981279 24.5917 0.381279 33.1292 0.360446 39.548C0.272224 42.054 0.460161 44.5622 0.920863 47.0271C1.0417 47.5376 1.32711 47.998 1.73128 48.3355C2.97795 49.1392 4.40619 49.6177 5.88545 49.7271C8.86143 49.9971 11.8522 50.0667 14.8375 49.9355C18.7021 49.9355 22.4625 49.9355 26.1584 49.6438C28.7217 49.4357 31.2604 48.9908 33.7417 48.3146C35.5035 47.9677 37.228 47.4529 38.8917 46.7771C39.3925 46.566 39.8237 46.2182 40.1361 45.7735C40.4485 45.3289 40.6295 44.8052 40.6584 44.2626C40.6584 42.4771 41.0125 35.0605 40.9084 29.0167C40.9199 26.7786 40.7597 24.5429 40.4292 22.3292" fill="#001BAB"/>
<path d="M49.1146 3.38333C48.9598 2.45844 48.5249 1.60332 47.8688 0.933331C45.6266 -0.0527954 43.1201 -0.265334 40.7438 0.329164C35.7538 1.15495 30.8748 2.54945 26.2021 4.48541C25.9205 4.60379 25.6871 4.81395 25.54 5.08173C25.3928 5.34951 25.3406 5.65918 25.3917 5.96041C25.4377 6.19231 25.5344 6.41117 25.6749 6.60133C25.8153 6.79149 25.9961 6.94826 26.2042 7.06041C28.2251 7.81875 30.3084 8.39583 32.4334 8.78541C32.7737 8.88264 33.1001 9.01389 33.4126 9.17916C31.6042 11.2562 28.8209 14.6625 25.8501 18.4229C15.9834 30.5542 15.5667 31.2396 16.8146 33.1104C17.5605 34.2729 19.348 34.6667 21.1126 33.1104C31.5001 24.7979 37.4605 20.2917 40.5563 17.8604L41.6376 17.0521C42.2378 18.5234 43.0114 19.918 43.9417 21.2062C44.239 21.621 44.6785 21.9119 45.1765 22.0233C45.6745 22.1347 46.196 22.059 46.6417 21.8104C47.6209 21 48.3001 19.8896 48.5751 18.6521C49.1893 16.3317 49.5305 13.9475 49.5917 11.5479C49.7646 8.81875 49.6042 6.075 49.1125 3.38333M47.2438 11.4646C47.2058 13.6634 46.9193 15.851 46.3896 17.9854C46.2632 18.541 46.0632 19.0674 45.7896 19.5646C45.5813 19.2312 44.998 18.8583 44.7084 18.3396C43.898 16.9271 43.1917 15.2437 42.8396 14.725C42.74 14.6037 42.6147 14.506 42.4727 14.439C42.3308 14.3719 42.1758 14.3371 42.0188 14.3371C41.8618 14.3371 41.7068 14.3719 41.5649 14.439C41.4229 14.506 41.2976 14.6037 41.198 14.725C40.5839 15.3402 39.9319 15.9163 39.2459 16.45C36.2125 18.775 30.2313 23.4292 20.1146 32.0292C19.2626 32.7354 18.4313 32.8396 18.0376 32.3C17.2271 31.0937 18.4959 29.4104 26.8855 19.3375C30.5626 14.9542 33.9063 11.0271 35.6313 9.30416C35.7706 9.13041 35.8465 8.91436 35.8465 8.69166C35.8465 8.46896 35.7706 8.25291 35.6313 8.07916C35.0404 7.55484 34.3255 7.18987 33.5542 7.01875C32.2042 6.60208 29.4001 6.35416 28.0292 5.91875C31.598 4.66875 35.2584 3.69791 38.9751 3.01041C40.8209 2.63541 42.7001 2.44791 44.5834 2.44791C45.1896 2.42083 45.7917 2.55833 46.3292 2.84375C46.5376 2.98958 46.5792 3.40625 46.7042 3.92291C47.188 6.40578 47.3705 8.9382 47.2438 11.4646Z" fill="#020202"/>
</svg>
