<svg width="54" height="54" viewBox="0 0 54 54" fill="none" xmlns="http://www.w3.org/2000/svg">
<path fill-rule="evenodd" clip-rule="evenodd" d="M27.6683 38.9701C27.4161 38.7622 27.1148 38.6225 26.7932 38.5641C26.4717 38.5058 26.1405 38.5309 25.8314 38.6369C25.5222 38.743 25.2454 38.9265 25.0274 39.17C24.8093 39.4134 24.6573 39.7087 24.5858 40.0276C23.5958 42.2776 27.3308 43.6951 28.2758 41.8951C28.9958 40.4776 28.9058 39.5776 27.6683 38.9701Z" fill="#001BAB"/>
<path fill-rule="evenodd" clip-rule="evenodd" d="M47.9026 10.3905C39.7328 -0.0269527 27.5558 0.715548 21.0758 2.38055C17.6909 3.23511 14.5138 4.76583 11.7361 6.88055C9.69282 8.40526 7.82178 10.148 6.15605 12.078C4.46349 14.0651 3.08135 16.2969 2.05655 18.6975C-0.0764784 23.3726 -0.57049 28.6304 0.654383 33.6209C1.87926 38.6115 4.75142 43.0431 8.80655 46.1993C12.7786 49.3753 17.5101 51.4607 22.5342 52.2498C27.5583 53.039 32.7013 52.5046 37.4558 50.6993C41.9892 48.8485 45.934 45.7997 48.8678 41.8793C51.916 38.0058 53.7069 33.2929 54.0001 28.3725C53.9866 21.8734 51.845 15.5574 47.9026 10.3905ZM46.8676 40.2773C44.1791 43.7617 40.6026 46.4585 36.5131 48.0848C32.2083 49.6956 27.5609 50.1691 23.0197 49.4597C18.4785 48.7502 14.1969 46.8818 10.5886 44.0348C6.92798 41.2599 4.30432 37.337 3.13762 32.8941C1.97092 28.4513 2.32866 23.7455 4.15355 19.53C5.0378 17.3408 6.25055 15.3 7.75355 13.4775C9.27854 11.5838 11.0063 9.86281 12.9061 8.3453C15.4594 6.33627 18.3896 4.85966 21.5236 4.0028C25.2833 2.9453 38.0431 0.582798 46.2803 11.6078C49.9085 16.4144 51.8464 22.2853 51.7928 28.3073C51.3853 32.7012 49.6688 36.8718 46.8653 40.2795" fill="#001BAB"/>
<path fill-rule="evenodd" clip-rule="evenodd" d="M28.6156 12.0106C27.3643 11.6598 26.0456 11.6241 24.7771 11.9068C23.5086 12.1895 22.3298 12.7817 21.3458 13.6306C20.365 14.5647 19.6704 15.7587 19.3433 17.0731C18.9059 18.8904 18.9447 20.7898 19.4558 22.5878C19.5045 22.7686 19.621 22.9236 19.7811 23.0206C19.9412 23.1175 20.1325 23.149 20.3153 23.1084C20.498 23.0678 20.658 22.9582 20.762 22.8026C20.8659 22.6469 20.9058 22.4572 20.8733 22.2728C20.6157 20.973 20.6157 19.6352 20.8733 18.3353C21.1061 17.1413 21.7611 16.071 22.7183 15.3203C23.4509 14.8019 24.2976 14.4678 25.1867 14.3464C26.0759 14.225 26.9812 14.3198 27.8258 14.6228C28.6904 14.8471 29.4924 15.2656 30.1708 15.8466C30.8492 16.4275 31.3862 17.1556 31.7408 17.9753C32.036 18.5654 32.1725 19.2221 32.137 19.8809C32.1015 20.5397 31.8952 21.1779 31.5383 21.7328C30.1433 23.7803 27.5783 25.4003 26.1833 27.6053C25.4975 28.6631 25.1448 29.9022 25.1708 31.1626C25.1565 32.3327 25.3705 33.4944 25.8008 34.5826C25.8511 34.7392 25.9466 34.8775 26.0753 34.9799C26.204 35.0823 26.3602 35.1443 26.5242 35.158C26.6881 35.1718 26.8524 35.1366 26.9964 35.057C27.1404 34.9774 27.2575 34.8569 27.3331 34.7108C27.4396 34.5128 27.4639 34.2808 27.4006 34.0651C27.1181 33.1479 26.9963 32.1888 27.0406 31.2301C27.1083 30.352 27.42 29.5104 27.9406 28.8001C29.1185 27.462 30.4303 26.2482 31.8556 25.1776C32.9935 24.2894 33.91 23.1496 34.5331 21.8476C34.8565 21.07 35.0229 20.2361 35.0229 19.3939C35.0229 18.5518 34.8565 17.7179 34.5331 16.9403C34.01 15.7073 33.2003 14.617 32.171 13.76C31.1418 12.903 29.9229 12.304 28.6156 12.0128" fill="#001BAB"/>
</svg>
