<svg width="42" height="40" viewBox="0 0 42 40" fill="none" xmlns="http://www.w3.org/2000/svg">
<path d="M13.9828 29.2726H14.189C16.0448 29.2726 17.9006 29.2726 19.7564 29.2726C20.4136 29.2726 21.058 29.2853 21.7153 29.2726C24.2541 29.1714 26.4707 28.2606 28.4167 26.7046C30.6462 24.9209 31.9994 22.6313 32.5278 19.8609C32.6438 19.2663 32.6824 18.6464 32.6953 18.0519C32.7211 17.2296 32.6953 16.3947 32.6953 15.5598C32.6953 11.7394 32.6953 7.93169 32.6953 4.11133C32.6953 3.87097 32.6953 3.87097 32.9402 3.87097C33.6103 3.87097 34.2933 3.87097 34.9635 3.87097C35.015 3.87097 35.0666 3.87097 35.1439 3.87097C35.1439 3.93422 35.1439 3.98482 35.1439 4.03542C35.1439 7.93169 35.1439 11.828 35.1439 15.7242C35.1439 16.5338 35.1439 17.3308 35.131 18.1404C35.0537 21.0626 34.1258 23.6939 32.3473 26.0342C31.0844 27.6913 29.5379 29.0576 27.6692 30.0316C26.1356 30.8286 24.4989 31.3473 22.772 31.5497C22.0632 31.6256 21.3415 31.6382 20.6327 31.6382C18.313 31.6509 16.0061 31.6382 13.6864 31.6382C13.0292 31.6382 12.3719 31.6382 11.7146 31.6382C11.676 31.6382 11.6244 31.6382 11.5729 31.6382V26.7552C11.6889 26.7552 11.8048 26.7426 11.9079 26.7426C12.4879 26.7426 13.0678 26.7426 13.6477 26.7426C13.9184 26.7426 13.957 26.692 13.957 26.4263C13.957 25.7559 13.957 25.0727 13.957 24.4023C13.957 24.3896 13.957 24.3643 13.957 24.339C14.0086 24.339 14.073 24.339 14.1246 24.339C15.6711 24.339 17.2176 24.339 18.764 24.339C19.6404 24.339 20.5296 24.339 21.406 24.3264C22.7591 24.2884 23.9577 23.833 25.0273 23.0234C26.4707 21.9102 27.2955 20.4554 27.5275 18.6844C27.579 18.3049 27.5919 17.9127 27.5919 17.5206C27.5919 15.3827 27.5919 13.2574 27.5919 11.1195C27.5919 8.98166 27.5919 10.993 27.5919 10.9171H30.0405C30.0405 10.9677 30.0405 11.0183 30.0405 11.0689C30.0405 13.2827 30.0534 15.5092 30.0405 17.723C30.0147 20.7211 28.7904 23.1752 26.3547 24.9968C25.1304 25.9203 23.7128 26.4516 22.1921 26.6287C21.625 26.692 21.0322 26.7046 20.4523 26.7173C19.1249 26.7299 17.7846 26.7173 16.4572 26.7173C15.7355 26.7173 15.0138 26.7173 14.2921 26.7173C14.2406 26.7173 14.189 26.7173 14.1246 26.7173C13.9957 26.7173 13.9313 26.7805 13.9313 26.907C13.9313 27.6787 13.9313 28.4504 13.9313 29.222C13.9313 29.2347 13.9313 29.2473 13.9442 29.2853L13.9828 29.2726Z" fill="#EAEAEA"/>
<path d="M9.24026 36.3061H6.83032C6.83032 36.2682 6.83032 36.2302 6.83032 36.1923C6.83032 35.9899 6.83032 35.8001 6.83032 35.5977C6.83032 32.5364 6.83032 29.475 6.83032 26.401C6.83032 25.5028 6.83032 24.6047 6.83032 23.7192C6.84321 22.8842 6.8561 22.0493 6.93342 21.2144C7.07518 19.5825 7.52624 18.0139 8.26082 16.5338C9.33048 14.3706 10.8254 12.549 12.823 11.1448C14.4725 9.98102 16.3026 9.23466 18.2743 8.82985C19.2409 8.62745 20.2203 8.55154 21.2127 8.55154C24.1123 8.55154 26.9991 8.55154 29.8988 8.55154H30.1049V13.2321H27.695V15.5345H27.5017C25.3624 15.5345 23.2231 15.5345 21.0967 15.5345C19.2151 15.5345 17.63 16.2302 16.2768 17.4826C15.0138 18.6591 14.3179 20.1391 14.0859 21.8216C14.0344 22.1632 14.0215 22.5047 14.0215 22.8336C14.0215 24.8324 14.0215 26.8185 14.0086 28.8172C14.0086 28.8805 14.0086 28.9311 14.0086 29.007H11.6244V28.8298C11.6244 27.0841 11.6244 25.3384 11.6244 23.6053C11.6244 22.9854 11.6244 22.3656 11.676 21.7584C11.8177 19.9873 12.4621 18.3934 13.5575 16.9766C14.4854 15.7748 15.6195 14.7881 17.0114 14.1303C18.0037 13.6496 19.0605 13.3586 20.1559 13.2701C20.6585 13.2321 21.174 13.2195 21.6895 13.2195C23.6226 13.2195 25.5557 13.2195 27.4888 13.2195H27.6692V10.9298C27.5919 10.9298 27.5146 10.9171 27.4373 10.9171C25.7232 10.9171 24.0092 10.9171 22.3081 10.9171C21.5735 10.9171 20.8389 10.9298 20.1043 10.9551C18.8414 10.993 17.6428 11.3219 16.4959 11.8533C15.104 12.4858 13.8411 13.308 12.7456 14.3706C11.4698 15.623 10.5677 17.1031 9.96196 18.7729C9.49801 20.0759 9.26604 21.4168 9.26604 22.7957C9.26604 27.2359 9.26604 31.6888 9.26604 36.129V36.3314L9.24026 36.3061Z" fill="#EAEAEA"/>
</svg>
