<svg width="56" height="56" viewBox="0 0 56 56" fill="none" xmlns="http://www.w3.org/2000/svg">
<path fill-rule="evenodd" clip-rule="evenodd" d="M30.8256 35.0071C31.0356 34.4237 31.2223 33.8147 31.3856 33.2081C31.5489 32.5991 31.7123 31.3367 31.8289 30.4011C33.6978 30.5811 35.5667 30.0585 37.0711 28.9351C38.5754 27.8117 39.6072 26.1681 39.9653 24.3251C40.5326 22.5208 40.6152 20.599 40.2048 18.7526C39.7944 16.9063 38.9055 15.2005 37.6273 13.8064C36.8573 13.0364 35.5949 13.0131 34.4259 14.3897C33.5356 15.6211 32.7533 16.9272 32.0879 18.2934C31.1977 17.9636 30.3308 17.5738 29.4933 17.1267C29.6613 16.7767 29.809 16.4182 29.9366 16.0511C30.4966 14.5064 31.2689 12.8241 31.4089 12.2174C31.4564 11.7665 31.3382 11.3136 31.0763 10.9435C30.8144 10.5734 30.4267 10.3113 29.9856 10.2061C28.2984 9.78404 26.5202 9.9149 24.9129 10.5794C23.6873 11.1225 22.586 11.9113 21.6774 12.897C20.7688 13.8827 20.072 15.0443 19.6303 16.3101C19.0183 17.5827 18.6736 18.9672 18.6174 20.3782C18.5613 21.7892 18.7948 23.1968 19.3036 24.5141C19.9887 25.9544 21.2019 27.0757 22.6916 27.6454C21.8749 29.1644 21.0093 30.6391 20.3536 32.3214C19.8636 33.4414 19.4669 34.6594 19.0703 35.8027C18.6713 36.9484 18.5779 37.4407 18.1323 38.7731C17.6889 40.1031 19.7703 40.3131 20.4703 39.3331C21.1703 38.3531 21.1936 38.0731 21.6859 36.9951C22.1759 35.9217 22.3393 35.5484 22.6193 34.8227C22.9273 34.0605 23.1847 33.2812 23.3916 32.4847C23.9049 30.7324 24.2339 28.9544 24.7006 27.1554C25.1673 25.3564 21.4993 27.1554 20.7503 22.6917C20.5182 20.8128 20.8779 18.9082 21.7793 17.2434C22.2501 15.9713 23.098 14.8733 24.2096 14.0961C25.3212 13.3189 26.6436 12.8995 27.9999 12.8941C27.471 14.0001 27.0192 15.1379 26.6443 16.3077C26.4483 17.0101 26.4483 17.7544 26.6443 18.4567C26.7874 18.8743 27.0891 19.2188 27.4843 19.4157C27.9354 19.6646 28.3958 19.8902 28.8656 20.0924C30.1544 20.7506 31.5452 21.1861 32.9793 21.3804C33.3301 21.3094 33.6599 21.1586 33.9431 20.9397C34.2263 20.7208 34.4554 20.4397 34.6126 20.1181C34.9649 19.4647 35.5273 18.2467 36.1106 17.2177C36.2428 16.9906 36.4062 16.7884 36.6006 16.6111C37.3055 17.6189 37.7799 18.7696 37.99 19.9814C38.2001 21.1932 38.1408 22.4364 37.8163 23.6227C35.9006 31.2901 31.1079 26.6397 30.6179 28.2987C30.1279 29.9577 29.2623 30.8467 28.6533 32.2024C28.3966 32.7624 28.1866 33.3457 27.9766 33.9314C27.7666 34.5147 27.6033 35.0981 27.4399 35.7071C27.0899 37.0161 27.0199 37.4617 26.6909 38.7474C26.5276 39.5874 28.6533 39.7741 29.0289 38.8641C29.4023 37.9541 29.7289 37.6017 30.1489 36.6894C30.3356 36.1527 30.6133 35.5694 30.8256 35.0071Z" fill="#020202"/>
<path fill-rule="evenodd" clip-rule="evenodd" d="M52.2597 12.9407C48.6056 7.89589 43.4268 4.15922 37.4873 2.28201C31.6114 0.233311 25.2628 -0.0425736 19.2313 1.48868C13.6054 3.1752 8.63562 6.55385 4.99799 11.165C3.09612 13.4273 1.68578 16.0606 0.856666 18.8974C0.0275486 21.7343 -0.202214 24.7126 0.181988 27.643C0.776109 30.7213 2.16846 33.5896 4.21964 35.9606C6.27082 38.3316 8.90886 40.1221 11.8697 41.153C17.0058 43.1998 22.6719 43.5039 27.9977 42.0187C28.3399 43.54 28.7677 45.0365 29.281 46.508C29.8433 48.118 30.4523 49.756 31.059 51.3217C31.479 52.374 31.9223 53.3797 32.2747 54.3853C32.3421 54.6106 32.4617 54.8168 32.6239 54.9871C32.7861 55.1574 32.9862 55.287 33.208 55.3653C33.3924 55.447 33.5919 55.4892 33.7937 55.4892C33.9954 55.4892 34.1949 55.447 34.3793 55.3653C34.6856 55.247 34.9525 55.0448 35.1493 54.782C35.336 54.5487 35.5693 53.942 35.756 53.683L37.6973 50.4583L42.6533 41.3887C42.7534 41.5234 42.8905 41.6261 43.048 41.6841C43.2055 41.7421 43.3764 41.753 43.54 41.7153C46.42 40.9868 49.0473 39.4876 51.1397 37.3787C53.2321 35.2699 54.7107 32.631 55.4167 29.7453C56.1089 26.8803 56.1855 23.9011 55.6413 21.0043C55.0971 18.1075 53.9445 15.3591 52.2597 12.9407ZM53.312 29.3043C52.7375 31.8562 51.4786 34.2033 49.6706 36.0935C47.8626 37.9837 45.5738 39.3457 43.05 40.033C42.8397 40.1047 42.6591 40.2443 42.5367 40.4297C42.5367 40.4297 42.5367 40.243 42.35 40.1963C42.2479 40.1338 42.1342 40.0926 42.0157 40.0751C41.8973 40.0577 41.7765 40.0645 41.6607 40.095C41.5449 40.1255 41.4365 40.1792 41.342 40.2528C41.2476 40.3263 41.169 40.4183 41.111 40.523L35.2427 49.0303L34.0993 50.7383L33.8193 50.1783C32.6713 47.8403 31.2923 45.5023 30.24 43.1643C30.03 42.6743 29.8667 42.161 29.68 41.6687C29.8766 41.5857 30.0343 41.431 30.1209 41.2359C30.2076 41.0409 30.2168 40.8202 30.1467 40.6187C30.0688 40.4178 29.9149 40.2559 29.7182 40.168C29.5215 40.0802 29.2982 40.0736 29.0967 40.1497H28.98C28.1804 40.2041 27.4011 40.3597 26.642 40.6163L25.3563 40.9663C23.4173 41.223 21.4527 41.223 19.5113 40.9663C17.1938 40.6112 14.916 40.0329 12.7097 39.2397C10.1439 38.2965 7.87238 36.6931 6.12429 34.5915C4.37621 32.4899 3.21343 29.9643 2.75332 27.2697C2.50709 24.7031 2.79526 22.1133 3.59964 19.6636C4.40403 17.2139 5.70719 14.9574 7.42699 13.0363C10.6769 8.96732 15.0877 5.98312 20.0737 4.48001C25.5149 3.07561 31.2465 3.27823 36.575 5.06335C41.9691 6.66739 46.7156 9.94088 50.1317 14.413C51.6821 16.5169 52.7675 18.9263 53.3159 21.4816C53.8642 24.0369 53.8628 26.6796 53.312 29.2343V29.3043Z" fill="#0C6FFF"/>
</svg>
