<svg width="56" height="56" viewBox="0 0 56 56" fill="none" xmlns="http://www.w3.org/2000/svg">
<path fill-rule="evenodd" clip-rule="evenodd" d="M22.7407 42.6673C21.7871 42.4573 20.8538 42.1773 19.9407 41.8273C19.0503 41.4932 18.199 41.0629 17.402 40.544C16.0156 39.6644 14.8657 38.4587 14.0526 37.0323C13.2395 35.6059 12.7881 34.0021 12.7377 32.361C12.6313 29.0555 13.6607 25.8134 15.6543 23.1746C16.9249 21.4044 18.5731 19.9387 20.4797 18.8836C22.4091 17.8629 24.5284 17.2513 26.705 17.087C29.5987 16.9196 32.4765 17.6205 34.9692 19.0996C37.4619 20.5788 39.456 22.7689 40.6957 25.389C41.4349 26.6273 41.9157 28.0026 42.109 29.4318C42.3023 30.8611 42.2041 32.3146 41.8204 33.7049C41.4366 35.0951 40.7752 36.3933 39.8761 37.521C38.977 38.6486 37.8589 39.5825 36.589 40.2663C36.4838 40.3266 36.3917 40.4073 36.3181 40.5037C36.2445 40.6001 36.1909 40.7102 36.1605 40.8276C36.13 40.9449 36.1234 41.0672 36.1409 41.1872C36.1584 41.3072 36.1997 41.4225 36.2623 41.5263C36.3203 41.6308 36.3988 41.7224 36.4931 41.7957C36.5874 41.8691 36.6956 41.9226 36.8111 41.9531C36.9266 41.9836 37.047 41.9905 37.1653 41.9733C37.2835 41.9561 37.397 41.9152 37.499 41.853C44.9843 37.7463 45.8477 30.4033 43.0267 24.269C41.6092 21.149 39.307 18.5138 36.4055 16.6904C33.504 14.8669 30.131 13.9355 26.705 14.0116C24.0796 14.1851 21.5243 14.933 19.2197 16.2026C16.3696 17.8096 14.0426 20.2034 12.5169 23.0978C10.9913 25.9923 10.3316 29.2649 10.6167 32.5243C10.7279 34.4723 11.3074 36.3647 12.3058 38.0411C13.3042 39.7174 14.6922 41.1283 16.352 42.154C17.2853 42.6922 18.2653 43.1278 19.292 43.4606C20.2798 43.8029 21.2893 44.0673 22.3207 44.254C22.5371 44.2954 22.761 44.2501 22.9444 44.1278C23.1277 44.0056 23.2556 43.8163 23.3007 43.6006C23.3384 43.4034 23.3021 43.1993 23.1988 43.0271C23.0955 42.8549 22.9324 42.7268 22.7407 42.6673Z" fill="#0C6FFF"/>
<path fill-rule="evenodd" clip-rule="evenodd" d="M27.7784 39.2162C28.8326 39.0081 29.8154 38.5319 30.632 37.8334C31.4486 37.1349 32.0714 36.2378 32.4404 35.2286C32.5008 35.1237 32.5391 35.0076 32.553 34.8874C32.5669 34.7672 32.556 34.6454 32.521 34.5295C32.486 34.4137 32.4277 34.3062 32.3497 34.2138C32.2716 34.1213 32.1754 34.0458 32.0671 33.9919C31.9622 33.9315 31.8461 33.8931 31.7259 33.8793C31.6057 33.8654 31.4839 33.8763 31.368 33.9113C31.2522 33.9462 31.1447 34.0046 31.0522 34.0826C30.9598 34.1607 30.8843 34.2569 30.8304 34.3652C30.3763 35.0583 29.7253 35.5998 28.961 35.92C28.1968 36.2401 27.3542 36.3244 26.5417 36.1619C26.0619 36.1061 25.5913 35.9885 25.1417 35.8119C23.9338 35.4264 22.8909 34.6456 22.1807 33.5952C22.1423 33.4825 22.079 33.3798 21.9955 33.2949C21.9121 33.2099 21.8105 33.1449 21.6984 33.1045C21.5864 33.0642 21.4667 33.0496 21.3482 33.0618C21.2297 33.0741 21.1155 33.1128 21.014 33.1752C20.8163 33.2622 20.6611 33.424 20.5824 33.6252C20.5037 33.8263 20.5079 34.0505 20.5941 34.2486C21.0817 35.9986 22.204 37.5059 23.744 38.4719C24.458 38.8872 25.2514 39.1486 26.0751 39.2396C26.6428 39.3173 27.2106 39.3096 27.7784 39.2162Z" fill="#0C6FFF"/>
<path fill-rule="evenodd" clip-rule="evenodd" d="M55.734 29.05C55.59 28.4309 55.3624 27.8343 55.0573 27.2766C54.5063 26.2974 53.7574 25.4435 52.8583 24.7695C51.9593 24.0954 50.9298 23.6158 49.8353 23.3613C49.6559 21.9898 49.3752 20.6336 48.9953 19.3036C48.1317 16.3204 46.6261 13.562 44.5842 11.2218C42.5423 8.88165 40.0134 7.01624 37.1747 5.75629C34.1721 4.62109 30.9702 4.1081 27.7633 4.24849C24.5564 4.38888 21.4115 5.17972 18.5197 6.57296C15.5453 7.78974 12.9157 9.71923 10.8625 12.1915C8.80931 14.6638 7.39554 17.603 6.74568 20.7503C6.74568 21.3103 6.74568 21.8703 6.60568 22.4303C5.41977 22.6516 4.29807 23.1344 3.32212 23.8435C2.34618 24.5527 1.54051 25.4704 0.963682 26.53C0.658793 27.09 0.433237 27.6811 0.287015 28.3033C-0.0945324 29.5964 -0.0945324 30.9722 0.287015 32.2653C0.634575 33.2402 1.21955 34.1132 1.9891 34.8053C2.75864 35.4975 3.68851 35.987 4.69468 36.2296C5.15668 36.3758 5.63113 36.477 6.11801 36.533C6.5909 36.5796 7.06457 36.5796 7.53901 36.533C7.75263 36.5255 7.95724 36.445 8.11862 36.3049C8.28001 36.1647 8.3884 35.9734 8.42568 35.763C8.52033 35.8085 8.624 35.8321 8.72901 35.8321C8.83403 35.8321 8.9377 35.8085 9.03235 35.763C9.17518 35.6985 9.29572 35.5932 9.37878 35.4603C9.46183 35.3274 9.50367 35.1729 9.49901 35.0163C8.95285 32.719 8.60931 30.3783 8.47235 28.021C8.34168 25.718 8.50501 23.4056 8.96235 21.1423C9.69513 18.459 11.0595 15.9901 12.9413 13.9418C14.8232 11.8935 17.168 10.3253 19.7797 9.36829C22.3108 8.15582 25.0592 7.46299 27.8626 7.33073C30.6659 7.19848 33.4674 7.62949 36.1013 8.59829C38.581 9.64254 40.8074 11.2073 42.6298 13.1867C44.4522 15.1661 45.8281 17.514 46.6643 20.0713C48.4258 25.3969 48.269 31.1708 46.221 36.393C46.1757 36.5047 46.153 36.6243 46.1544 36.7449C46.1557 36.8655 46.181 36.9846 46.2288 37.0953C46.2765 37.2061 46.3458 37.3062 46.4326 37.3899C46.5194 37.4736 46.622 37.5392 46.7343 37.583C46.8782 37.631 47.0338 37.631 47.1777 37.583C46.5295 38.939 45.7479 40.2272 44.8443 41.4283C43.981 42.5973 42.973 43.6473 41.8367 44.555C40.0925 46.1268 37.842 47.0202 35.4947 47.0726C35.3909 46.8844 35.2239 46.7389 35.0232 46.662C34.8224 46.5852 34.601 46.5818 34.398 46.6526C34.1693 46.7458 33.9869 46.9258 33.8907 47.1533C33.7945 47.3807 33.7923 47.6369 33.8847 47.866C33.8847 48.1693 33.8847 48.3793 33.5813 48.5893C33.208 48.8693 32.7647 49.049 32.3003 49.1003C31.6488 49.2244 30.9771 49.1924 30.3403 49.007C29.6953 48.8485 29.0915 48.5542 28.5693 48.1436C28.1727 47.8636 27.8693 47.677 28.0093 47.397C28.1862 47.0574 28.4631 46.7805 28.8027 46.6036L30.3893 46.0903C30.837 46.0186 31.2893 45.9796 31.7427 45.9736H33.187C33.3939 46.0074 33.6058 45.9578 33.7763 45.8359C33.9468 45.7139 34.0621 45.5294 34.097 45.3226C34.1173 45.2169 34.1164 45.1082 34.0945 45.0028C34.0726 44.8973 34.0301 44.7973 33.9693 44.7084C33.9086 44.6195 33.8309 44.5435 33.7407 44.4847C33.6505 44.4259 33.5495 44.3856 33.4437 44.366L30.3403 43.8526C29.9452 43.819 29.5479 43.819 29.1527 43.8526C28.7332 43.8856 28.3186 43.9638 27.916 44.086C27.2551 44.2514 26.6472 44.5825 26.1496 45.0478C25.652 45.5132 25.281 46.0976 25.0717 46.746C24.9189 47.4841 25.0037 48.2516 25.3138 48.9386C25.624 49.6256 26.1437 50.1967 26.7983 50.5703C27.7317 51.1863 28.791 51.583 29.8993 51.737C30.9563 51.842 32.025 51.7066 33.0237 51.3403C33.9803 50.9786 34.7947 50.3253 35.357 49.4736C35.4566 49.2558 35.5343 49.0303 35.5903 48.797C38.0065 49.1188 40.4617 48.6437 42.5833 47.4436C44.5177 46.3225 46.1255 44.7154 47.2477 42.7816C48.2659 41.1084 48.9837 39.2701 49.3687 37.3496H50.022C50.5042 37.2718 50.9787 37.163 51.4453 37.023C52.4171 36.7527 53.3087 36.2505 54.0435 35.5595C54.7784 34.8686 55.3345 34.0096 55.664 33.0563C56.086 31.7568 56.1104 30.3633 55.734 29.05ZM6.39568 34.552C6.06178 34.4384 5.73459 34.3059 5.41568 34.1553C4.87052 33.8893 4.39232 33.5038 4.01664 33.0275C3.64095 32.5512 3.37744 31.9964 3.24568 31.4043C3.08963 30.635 3.09042 29.8422 3.24801 29.0733C3.41055 28.1169 3.77544 27.2063 4.31827 26.4023C4.86111 25.5983 5.56937 24.9195 6.39568 24.4113C6.37235 25.6884 6.41901 26.9624 6.53568 28.2333C6.76901 30.5293 7.20535 32.802 7.84235 35.0186C7.70235 35.0186 7.60901 34.8553 7.44568 34.8553L6.39568 34.552ZM50.6987 34.8786C47.1753 36.582 50.4653 32.6876 50.0687 25.2723C51.5412 26.3467 52.5365 27.9531 52.843 29.75C52.997 30.52 52.997 31.3133 52.843 32.0833C52.7116 32.6909 52.4409 33.2596 52.0522 33.7447C51.6635 34.2298 51.1674 34.618 50.603 34.8786H50.6987Z" fill="#020202"/>
<path fill-rule="evenodd" clip-rule="evenodd" d="M20.6197 24.5488C20.1978 24.5383 19.7778 24.6096 19.383 24.7588C18.4963 25.1088 17.703 25.6502 17.0497 26.3455C16.868 26.4607 16.7391 26.643 16.691 26.8527C16.643 27.0624 16.6796 27.2826 16.793 27.4655C17.1197 28.0488 21.4597 27.4655 22.2997 27.4655C22.6714 27.4811 23.0362 27.5433 23.394 27.6522C23.606 27.7759 23.8574 27.8134 24.0963 27.7569C24.3351 27.7005 24.5432 27.5544 24.6773 27.3488C24.7998 27.1404 24.8366 26.8926 24.78 26.6576C24.7234 26.4226 24.5779 26.2187 24.374 26.0888C23.6759 25.3933 22.8067 24.8943 21.854 24.6422C21.4499 24.5423 21.0342 24.5108 20.6197 24.5488ZM37.5247 27.4632C37.636 27.2775 37.669 27.0552 37.6165 26.8452C37.564 26.6352 37.4303 26.4546 37.2447 26.3432C36.6022 25.6391 35.8028 25.0963 34.9113 24.7588C34.5166 24.6096 34.0966 24.5383 33.6747 24.5488C33.2523 24.5255 32.8253 24.5722 32.417 24.6888C31.4664 24.946 30.5984 25.4443 29.897 26.1355C29.6974 26.2694 29.5571 26.4751 29.5054 26.7098C29.4537 26.9445 29.4945 27.1901 29.6193 27.3955C29.7495 27.6057 29.9577 27.7557 30.1983 27.8126C30.4389 27.8695 30.6922 27.8286 30.9027 27.6988C31.2589 27.5899 31.6244 27.5277 31.9993 27.5122C34.6337 27.3022 37.0347 28.3032 37.5247 27.4632Z" fill="#0C6FFF"/>
</svg>
