<svg width="36" height="36" viewBox="0 0 36 36" fill="none" xmlns="http://www.w3.org/2000/svg">
<path d="M32.8731 9.39695C31.7501 9.90742 30.5395 10.2429 29.2852 10.4033C30.5687 9.63031 31.5605 8.40518 32.0272 6.93211C30.8167 7.66135 29.4748 8.17182 28.0601 8.46352C26.9079 7.20922 25.289 6.47998 23.4513 6.47998C20.0239 6.47998 17.2236 9.28027 17.2236 12.7369C17.2236 13.2328 17.2819 13.7141 17.384 14.1662C12.1918 13.9037 7.56842 11.4097 4.49102 7.63218C3.95138 8.55103 3.6451 9.63031 3.6451 10.7679C3.6451 12.9411 4.73896 14.8663 6.4308 15.9601C5.39528 15.9601 4.43268 15.6684 3.58676 15.2309V15.2746C3.58676 18.3083 5.74532 20.846 8.60394 21.4149C7.68632 21.6671 6.72255 21.702 5.78907 21.5169C6.1852 22.7603 6.96102 23.8482 8.00745 24.6278C9.05388 25.4074 10.3183 25.8394 11.623 25.8632C9.41146 27.6142 6.67001 28.5605 3.84929 28.5468C3.3534 28.5468 2.85752 28.5177 2.36163 28.4593C5.13275 30.2387 8.42893 31.2742 11.9585 31.2742C23.4513 31.2742 29.7665 21.7357 29.7665 13.4661C29.7665 13.189 29.7665 12.9265 29.752 12.6494C30.9771 11.7743 32.0272 10.6658 32.8731 9.39695Z" fill="#001BAB"/>
</svg>
