<svg width="55" height="56" viewBox="0 0 55 56" fill="none" xmlns="http://www.w3.org/2000/svg">
<path fill-rule="evenodd" clip-rule="evenodd" d="M16.264 6.16237C16.2075 5.09548 16.2458 4.02557 16.3785 2.96571C16.4813 2.82513 16.5304 2.65136 16.5168 2.47669C16.5032 2.30201 16.4278 2.1383 16.3046 2.01597C16.1813 1.89365 16.0187 1.82103 15.8468 1.8116C15.675 1.80217 15.5056 1.85657 15.3702 1.96471C14.614 2.66471 14.614 5.06804 14.4306 5.90804C12.7978 13.1187 12.7118 20.6031 14.1785 27.8507C14.2029 28.0611 14.3083 28.2531 14.4716 28.3843C14.6349 28.5156 14.8427 28.5755 15.0494 28.5507C15.256 28.526 15.4446 28.4186 15.5735 28.2523C15.7024 28.0861 15.7612 27.8744 15.7369 27.664C15.4851 20.4926 15.6612 13.3121 16.264 6.16237Z" fill="#020202"/>
<path fill-rule="evenodd" clip-rule="evenodd" d="M48.4229 8.58668C38.2876 7.89282 28.118 7.89282 17.9827 8.58668C17.1119 8.58668 16.7223 9.98668 18.3723 10.3133C21.67 10.3133 25.2427 10.8033 32.1131 10.8267C38.9835 10.85 43.819 10.4067 48.5604 10.2667C48.6688 10.2575 48.7743 10.2267 48.8709 10.1759C48.9675 10.1252 49.0534 10.0557 49.1236 9.97115C49.1939 9.88665 49.2471 9.78889 49.2802 9.68346C49.3133 9.57803 49.3257 9.46699 49.3167 9.35668C49.3076 9.24637 49.2773 9.13895 49.2275 9.04055C49.1777 8.94216 49.1094 8.85471 49.0264 8.78321C48.9434 8.71171 48.8474 8.65755 48.7439 8.62383C48.6403 8.59011 48.5312 8.57749 48.4229 8.58668Z" fill="#001BAB"/>
<path fill-rule="evenodd" clip-rule="evenodd" d="M54.4225 9.68339C54.1933 7.51339 54.4225 3.43472 52.7267 2.15139C49.2686 -0.55528 42.2606 0.238053 37.4504 0.0280533C31.405 -0.13528 25.1969 0.42472 19.3325 0.658053C19.2302 0.658053 19.1289 0.678573 19.0343 0.718442C18.9398 0.758311 18.8539 0.816747 18.7816 0.890415C18.7092 0.964083 18.6518 1.05154 18.6127 1.14779C18.5735 1.24404 18.5533 1.3472 18.5533 1.45139C18.5533 1.55557 18.5735 1.65873 18.6127 1.75498C18.6518 1.85123 18.7092 1.93869 18.7816 2.01236C18.8539 2.08603 18.9398 2.14446 19.0343 2.18433C19.1289 2.2242 19.2302 2.24472 19.3325 2.24472C25.2656 2.24472 31.2904 1.87139 37.29 2.24472C41.6442 2.52472 48.5604 2.24472 51.0331 4.20472C51.6061 4.67139 52.2706 17.7311 52.2936 19.0354C52.312 22.7148 52.0284 26.3894 51.4456 30.0207C48.6727 31.6774 37.3358 32.6341 34.0152 32.8441C33.8529 32.8756 33.7064 32.9638 33.601 33.0935C33.4957 33.2232 33.438 33.3862 33.438 33.5546C33.438 33.7229 33.4957 33.8859 33.601 34.0156C33.7064 34.1453 33.8529 34.2335 34.0152 34.2651C38.2754 34.2651 48.0563 33.6584 51.7436 32.2817C52.9811 31.8151 53.5081 31.2551 53.8748 29.274C55.0436 22.8107 55.2269 16.2051 54.4248 9.68339" fill="#020202"/>
<path fill-rule="evenodd" clip-rule="evenodd" d="M21.4638 6.04804C21.6215 5.75876 21.6735 5.42194 21.6106 5.09732C21.5477 4.7727 21.3739 4.48126 21.12 4.27471C19.8137 3.57471 18.2096 4.92804 19.3554 6.14137C19.4949 6.28576 19.6627 6.39871 19.8478 6.4729C20.0329 6.5471 20.2312 6.58089 20.43 6.5721C20.6287 6.5633 20.8234 6.5121 21.0015 6.42183C21.1796 6.33155 21.3371 6.20421 21.4638 6.04804ZM25.9531 5.58137C26.1084 5.28951 26.1568 4.95096 26.0896 4.62615C26.0224 4.30134 25.8441 4.01139 25.5865 3.80804C24.2802 3.10804 22.676 4.46137 23.8448 5.65137C23.9827 5.79715 24.1492 5.91182 24.3334 5.98797C24.5177 6.06413 24.7155 6.10007 24.9142 6.09347C25.113 6.08687 25.3081 6.03788 25.4871 5.94967C25.666 5.86146 25.8248 5.73599 25.9531 5.58137ZM30.8321 5.58137C30.9946 5.2933 31.0493 4.95513 30.9861 4.62922C30.9229 4.30331 30.7461 4.01165 30.4883 3.80804C29.1821 3.10804 27.5779 4.46137 28.7467 5.65137C28.8826 5.7966 29.0471 5.91094 29.2295 5.98689C29.4118 6.06284 29.6079 6.09868 29.8048 6.09207C30.0017 6.08546 30.195 6.03655 30.3721 5.94854C30.5491 5.86052 30.7059 5.7354 30.8321 5.58137ZM42.9688 41.4237C43.0774 40.6721 42.9861 39.9045 42.7042 39.201C42.4223 38.4975 41.9603 37.884 41.3662 37.4242C40.7721 36.9645 40.0678 36.6754 39.3267 36.5872C38.5855 36.499 37.8347 36.6149 37.1525 36.9227C35.0993 37.9228 33.2497 39.3081 31.7006 41.006C30.7381 41.7994 27.4863 44.3404 27.4863 44.3404C25.7051 44.3238 23.9454 43.943 22.3117 43.2204C22.3117 43.0104 22.4492 42.8004 22.7013 42.4504C25.4031 38.647 28.8842 37.296 26.4344 33.4484C26.0433 32.9048 25.4946 32.4999 24.8656 32.2906C24.2366 32.0813 23.559 32.0782 22.9281 32.2817C18.8971 33.0517 14.9806 37.135 11.1788 38.626C11.0183 38.626 10.835 38.626 10.7892 38.7427C10.1475 34.356 6.20813 35.4994 4.5375 35.476C2.86688 35.4527 -0.458333 35.2194 0.160417 36.7594C0.231241 36.9288 0.364754 37.0629 0.532038 37.1328C0.699323 37.2027 0.886909 37.2026 1.05417 37.1327C2.16563 37.0137 3.28854 37.086 4.37708 37.3427C9.14146 37.8794 8.56854 35.1494 8.27063 51.9424C8.27063 53.5057 8.27063 53.9257 5.72688 54.1357C4.26708 54.229 2.80042 54.159 1.35208 53.9257C1.14859 53.8866 0.938167 53.9308 0.766526 54.0488C0.594885 54.1668 0.475898 54.3489 0.435417 54.5557C0.415799 54.6582 0.416255 54.7637 0.436759 54.866C0.457262 54.9683 0.497409 55.0655 0.554897 55.152C0.612385 55.2385 0.686082 55.3126 0.771759 55.3701C0.857436 55.4275 0.953408 55.4671 1.05417 55.4867C2.6125 55.832 4.20292 56.0047 5.79792 56C8.08729 56 9.53104 55.65 10.3767 53.6667L15.51 52.5234C23.6156 54.6467 34.7256 55.09 41.8481 50.4724C44.5523 48.699 47.575 46.4614 46.0877 43.477C45.809 42.8721 45.3691 42.3589 44.8182 41.996C44.2672 41.633 43.6249 41.4347 42.9688 41.4237ZM33.0321 42.9404C35.3237 41.4937 38.1631 38.437 39.9048 39.137C40.3913 39.3034 40.7984 39.6504 41.0448 40.1088C41.2911 40.5673 41.3587 41.1035 41.234 41.6104C36.9944 42.5437 34.9777 43.4537 31.1781 43.9437C31.8198 43.617 32.5302 43.2437 33.0344 42.9404M40.3402 48.3747C31.1804 54.7867 15.6727 50.848 15.1456 50.9414C10.1063 52.199 10.5646 52.2457 10.5646 52.0357C11.2292 45.7147 10.5646 40.376 10.7938 40.376C13.2346 39.5024 15.5469 38.2935 17.6665 36.7827C19.0185 35.8727 23.666 33.1684 24.5369 34.5894C25.9806 36.9227 23.3681 37.506 20.6892 41.0294C19.3142 42.847 19.635 44.0837 20.46 44.9447C21.6815 45.8197 23.084 46.3914 24.5621 46.6247C29.7825 47.9547 38.7842 44.9214 40.3173 44.5947C41.8527 44.268 42.884 43.5447 43.5485 44.828C44.2131 46.1114 41.3485 47.6747 40.3402 48.3747Z" fill="#020202"/>
</svg>
