<svg width="56" height="56" viewBox="0 0 56 56" fill="none" xmlns="http://www.w3.org/2000/svg">
<path fill-rule="evenodd" clip-rule="evenodd" d="M16.8303 42.4785C16.9274 42.3188 16.9631 42.1294 16.9309 41.9453C16.8986 41.7613 16.8005 41.5953 16.6549 41.4782C16.5093 41.3612 16.3261 41.3011 16.1394 41.3091C15.9527 41.3171 15.7754 41.3927 15.6403 41.5218C15.0513 42.3292 14.2929 42.9981 13.4183 43.4817C12.5437 43.9654 11.574 44.2521 10.577 44.3218C9.64439 44.3089 8.72572 44.0935 7.88452 43.6907C7.04332 43.2878 6.29967 42.707 5.70499 41.9885C5.14289 41.0611 4.80394 40.0158 4.71485 38.9351C4.62577 37.8544 4.789 36.7677 5.19166 35.7608C5.52379 34.7387 6.16837 33.8466 7.0345 33.2102C7.90064 32.5739 8.94464 32.2255 10.0193 32.2141C10.9877 32.1861 11.9513 32.3378 12.866 32.6575C13.7457 32.9841 14.5413 33.5021 15.1993 34.1741C15.2796 34.2876 15.3917 34.3745 15.5216 34.424C15.6514 34.4735 15.793 34.4832 15.9284 34.4519C16.0637 34.4206 16.1867 34.3498 16.2817 34.2484C16.3767 34.147 16.4393 34.0196 16.4617 33.8825C16.4768 33.7917 16.4739 33.6987 16.4531 33.6091C16.4322 33.5194 16.3939 33.4347 16.3403 33.3598C15.5831 32.4457 14.6248 31.719 13.5403 31.2365C12.4457 30.7264 11.2679 30.4181 10.0637 30.3265C8.51837 30.214 6.97858 30.6088 5.67813 31.4511C4.37768 32.2933 3.38763 33.537 2.85833 34.9931C2.28058 36.381 2.05288 37.8896 2.19529 39.3861C2.3377 40.8826 2.84585 42.3212 3.67499 43.5751C3.97366 43.8707 4.30811 44.1196 4.67833 44.3218C3.98587 44.7811 3.34445 45.313 2.76499 45.9085C2.33877 46.386 1.97322 46.9071 1.66833 47.4718C1.36026 48.023 1.10255 48.6009 0.898327 49.1985C0.440668 50.5665 0.143127 51.9829 0.0116608 53.4195C-0.0100146 53.5419 -0.00169895 53.6678 0.0358965 53.7864C0.0734919 53.905 0.139248 54.0127 0.22754 54.1003C0.315831 54.1879 0.42403 54.2528 0.54288 54.2894C0.66173 54.3261 0.787693 54.3334 0.909994 54.3108C1.06649 54.2792 1.20872 54.1982 1.31581 54.0797C1.4229 53.9613 1.4892 53.8117 1.50499 53.6528C1.90477 52.4239 2.40255 51.2339 2.99833 50.0828L3.76833 48.6828C4.02499 48.2395 4.30499 47.7961 4.58499 47.3528C5.06722 46.6279 5.58833 45.9279 6.14833 45.2528C7.57852 46.0118 9.20205 46.3286 10.8127 46.1628C12.0194 46.01 13.18 45.6025 14.2174 44.9673C15.2548 44.3321 16.1455 43.4838 16.8303 42.4785ZM55.2253 49.1961C55.0211 48.5986 54.7634 48.0207 54.4553 47.4695C54.1522 46.9073 53.7841 46.3826 53.3587 45.9061C52.7791 45.3114 52.1377 44.7803 51.4453 44.3218C51.7798 44.0823 52.0753 43.8022 52.332 43.4818C53.1459 42.2386 53.6455 40.8162 53.7877 39.337C53.93 37.8579 53.7107 36.3664 53.1487 34.9908C52.6193 33.5342 51.6288 32.2903 50.3279 31.448C49.027 30.6057 47.4867 30.2111 45.941 30.3241C44.7649 30.4019 43.6117 30.6862 42.5343 31.1641C41.4498 31.6466 40.4915 32.3733 39.7343 33.2875C39.6761 33.3518 39.6311 33.427 39.602 33.5087C39.5728 33.5905 39.56 33.6771 39.5644 33.7638C39.5687 33.8505 39.5901 33.9354 39.6272 34.0138C39.6644 34.0923 39.7166 34.1626 39.781 34.2208C39.8453 34.279 39.9205 34.324 40.0023 34.3532C40.084 34.3823 40.1707 34.3951 40.2573 34.3908C40.344 34.3864 40.429 34.3651 40.5074 34.3279C40.5858 34.2907 40.6561 34.2385 40.7143 34.1741C41.3693 33.501 42.1665 32.9828 43.0477 32.6575C43.963 32.3451 44.9278 32.2028 45.8943 32.2375C46.9694 32.2484 48.0139 32.5966 48.8805 33.2329C49.7471 33.8692 50.3921 34.7616 50.7243 35.7841C51.1375 36.7811 51.3145 37.86 51.2417 38.9367C51.1688 40.0134 50.848 41.0586 50.3043 41.9908C49.6917 42.6759 48.9396 43.2219 48.0984 43.5921C47.2573 43.9624 46.3466 44.1483 45.4277 44.1375C44.4457 44.0901 43.4854 43.8323 42.6118 43.3814C41.7382 42.9305 40.9718 42.2971 40.3643 41.5241C40.2289 41.3971 40.0521 41.3234 39.8666 41.3164C39.681 41.3094 39.4992 41.3697 39.3546 41.4862C39.21 41.6027 39.1124 41.7675 39.0797 41.9502C39.047 42.133 39.0814 42.3214 39.1767 42.4808C39.8696 43.5088 40.7769 44.3746 41.8362 45.0187C42.8955 45.6628 44.0817 46.0698 45.3133 46.2118C46.8853 46.3543 48.4649 46.0382 49.861 45.3018C50.4179 45.9738 50.939 46.6738 51.4243 47.4018C51.7043 47.8451 51.9843 48.2885 52.241 48.7318L53.011 50.1318C53.6021 51.2658 54.0991 52.4395 54.502 53.6528C54.5187 53.7517 54.5552 53.8461 54.6093 53.9306C54.6633 54.015 54.7338 54.0877 54.8165 54.1444C54.8993 54.201 54.9926 54.2403 55.0909 54.2601C55.1892 54.2799 55.2905 54.2797 55.3887 54.2595C55.5762 54.22 55.7422 54.1121 55.8544 53.9568C55.9666 53.8014 56.0168 53.6099 55.9953 53.4195C55.9019 51.9868 55.6436 50.5696 55.2253 49.1961Z" fill="#020202"/>
<path fill-rule="evenodd" clip-rule="evenodd" d="M38.5233 44.4616C38.1583 43.7928 37.7201 43.1667 37.2166 42.5949C36.4322 41.7078 35.5384 40.9237 34.5566 40.2616C35.6116 39.2463 36.4239 38.0061 36.933 36.6333C37.442 35.2605 37.6347 33.7905 37.4966 32.3329C37.4843 29.9326 36.5192 27.6355 34.8136 25.9465C33.1081 24.2576 30.8016 23.3151 28.4013 23.3262C25.8211 23.2312 23.3077 24.1582 21.4071 25.9058C19.5066 27.6534 18.3725 30.0805 18.2513 32.6596C18.1906 34.3538 18.644 36.0268 19.5518 37.4586C20.4597 38.8904 21.7796 40.0139 23.338 40.6816C22.0142 41.422 20.7697 42.2776 19.6046 43.2482C18.5585 44.1405 17.6545 45.1869 16.9236 46.3516C16.2451 47.3392 15.7716 48.453 15.5312 49.6269C15.2907 50.8008 15.2881 52.011 15.5236 53.1859C15.5515 53.3839 15.6568 53.5628 15.8166 53.6831C15.9763 53.8035 16.1773 53.8554 16.3753 53.8276C16.5733 53.7997 16.7522 53.6943 16.8725 53.5346C16.9928 53.3749 17.0448 53.1739 17.017 52.9759C17.0219 51.0549 17.7175 49.1998 18.977 47.7492C19.677 46.8159 20.4936 45.9059 21.3103 45.0216C22.5249 43.717 23.8012 42.4711 25.1346 41.2882C26.0505 41.5232 26.9895 41.6562 27.9346 41.6849C28.0235 41.6912 28.1128 41.68 28.1973 41.6517C28.2819 41.6234 28.36 41.5787 28.4272 41.5202C28.4944 41.4617 28.5494 41.3904 28.589 41.3106C28.6286 41.2307 28.652 41.1438 28.658 41.0549C28.6644 40.8792 28.6023 40.708 28.4847 40.5773C28.3671 40.4467 28.2033 40.3669 28.028 40.3549C22.9413 39.8882 20.538 36.7406 20.468 33.3572C21.1586 33.7212 21.91 33.9522 22.6846 34.0339C23.0479 34.0915 23.418 34.0915 23.7813 34.0339C24.1608 33.9795 24.5264 33.8783 24.878 33.7306C25.7773 33.4189 26.581 32.8805 27.2113 32.1672C27.2113 32.1672 27.2113 31.9806 27.328 31.9106L28.2146 32.3772C29.0048 32.749 29.8293 33.0212 30.688 33.1939C32.2933 33.4529 33.9313 33.4529 35.539 33.1939C35.7317 34.914 35.2626 36.643 34.2268 38.0298C33.1911 39.4166 31.6664 40.3572 29.9623 40.6606C29.7619 40.6841 29.5788 40.7852 29.4523 40.9423C29.3258 41.0994 29.2659 41.2998 29.2856 41.5006C29.2971 41.5989 29.3281 41.694 29.3767 41.7803C29.4253 41.8666 29.4906 41.9423 29.5688 42.0031C29.647 42.0639 29.7365 42.1086 29.8321 42.1345C29.9277 42.1603 30.0274 42.167 30.1256 42.1539C31.2386 42.0606 32.319 41.7339 33.299 41.1972C34.0845 42.0543 34.7923 42.9721 35.4223 43.9506C35.7723 44.4849 36.1223 45.0216 36.449 45.5816C36.7756 46.1416 37.079 46.7249 37.3823 47.3316C38.094 48.7502 38.6703 50.2342 39.1089 51.7649C39.1433 51.9099 39.219 52.0419 39.3268 52.1447C39.4347 52.2476 39.5701 52.3169 39.7166 52.3443C39.8631 52.3718 40.0144 52.3561 40.1521 52.2992C40.2899 52.2423 40.4081 52.1467 40.4926 52.0239C40.5469 51.9415 40.5844 51.8492 40.6028 51.7523C40.6212 51.6554 40.6203 51.5558 40.6 51.4592C40.3954 49.8201 40.012 48.2083 39.4566 46.6526C39.2141 45.8949 38.9016 45.1614 38.5233 44.4616ZM25.0646 31.3762H23.9446L22.8246 31.5396C22.0624 31.7496 21.2846 31.8818 20.4913 31.9362C20.877 30.2025 21.8911 28.6731 23.338 27.6429C23.9863 28.9197 24.8734 30.0603 25.9513 31.0029C25.9895 31.0128 26.0297 31.0128 26.068 31.0029C25.7506 31.174 25.4162 31.2985 25.0646 31.3762ZM31.1313 30.9096C30.4589 30.6949 29.8037 30.4297 29.1713 30.1162C27.4626 29.3172 25.9434 28.1639 24.7146 26.7329C25.8966 26.2029 27.176 25.9248 28.4713 25.9162C30.0944 25.8616 31.68 26.4112 32.9211 27.4587C34.1621 28.5062 34.9703 29.977 35.189 31.5862C33.8125 31.5328 32.4483 31.3054 31.129 30.9096" fill="#020202"/>
<path fill-rule="evenodd" clip-rule="evenodd" d="M29.0756 44.4616C29.0756 44.2821 29.0043 44.11 28.8774 43.9831C28.7505 43.8562 28.5784 43.7849 28.3989 43.7849C28.2195 43.7849 28.0474 43.8562 27.9205 43.9831C27.7936 44.11 27.7223 44.2821 27.7223 44.4616C27.5123 45.3016 27.2556 46.0716 27.1156 46.9116C27.0813 47.2685 27.0813 47.628 27.1156 47.9849C27.0923 48.3349 27.0923 48.6849 27.1156 49.0349C27.1156 49.8749 27.4423 50.6449 27.6056 51.4849C27.6057 51.5838 27.6261 51.6815 27.6655 51.7722C27.7049 51.8629 27.7624 51.9445 27.8346 52.0121C27.9067 52.0796 27.9919 52.1317 28.085 52.165C28.1781 52.1984 28.277 52.2123 28.3756 52.2059C28.4757 52.206 28.5747 52.1859 28.6668 52.1469C28.759 52.108 28.8424 52.0509 28.912 51.979C28.9817 51.9072 29.0362 51.8221 29.0723 51.7288C29.1084 51.6355 29.1254 51.5359 29.1223 51.4359C29.1223 50.6192 29.4256 49.8492 29.519 49.1026C29.5441 48.7608 29.5441 48.4177 29.519 48.0759C29.5547 47.7275 29.5547 47.3775 29.519 47.0259C29.449 46.0459 29.2156 45.2992 29.0756 44.4616Z" fill="#020202"/>
<path fill-rule="evenodd" clip-rule="evenodd" d="M32.1324 13.3701L29.309 11.6667C29.309 11.6667 28.609 11.1767 28.329 11.0367C28.0745 10.9098 27.7865 10.8663 27.5059 10.9124C27.2253 10.9585 26.9663 11.0918 26.7657 11.2934C25.879 12.2501 24.948 13.1367 24.038 14.0444C22.638 15.4211 21.2614 16.7511 19.7914 18.0111C18.1425 19.3839 16.422 20.6682 14.637 21.8587C14.4885 21.9516 14.383 22.0996 14.3436 22.2702C14.3042 22.4409 14.3342 22.6202 14.427 22.7687C14.5199 22.9173 14.6679 23.0228 14.8385 23.0622C15.0092 23.1016 15.1885 23.0716 15.337 22.9787C17.7842 21.6536 20.1246 20.1402 22.337 18.4521C24.2754 17.0051 26.1288 15.4478 27.888 13.7877L30.7814 15.5377L42.6767 23.3287C42.8476 23.4346 43.053 23.4694 43.2492 23.4258C43.4454 23.3822 43.6168 23.2636 43.7267 23.0954C43.7833 23.0131 43.8227 22.9204 43.8428 22.8226C43.8629 22.7248 43.8631 22.6239 43.8435 22.526C43.824 22.4281 43.7849 22.3352 43.7288 22.2526C43.6727 22.1701 43.6005 22.0996 43.5167 22.0454C40.4134 19.8754 37.5434 17.3787 34.51 15.0454C33.7167 14.4877 32.9257 14.0001 32.1324 13.3701Z" fill="#0C6FFF"/>
<path fill-rule="evenodd" clip-rule="evenodd" d="M13.1693 15.771C14.7559 14.7444 16.3426 13.6244 17.8336 12.481C20.1669 10.7777 22.5003 9.00435 24.6936 7.25435L27.7479 4.92335L28.0046 4.66668C28.0046 4.66668 28.6346 5.04002 28.7513 5.15668C29.5679 5.92668 30.3379 6.69668 31.0846 7.49002C31.4579 7.79335 31.8546 8.12002 32.2513 8.40002C33.8229 9.50631 35.4583 10.5192 37.1489 11.4334C39.6223 12.88 42.1633 14.161 44.6133 15.5377C44.6975 15.5885 44.7909 15.6221 44.8881 15.6367C44.9854 15.6513 45.0845 15.6465 45.1799 15.6226C45.2753 15.5988 45.3651 15.5563 45.444 15.4977C45.5229 15.4391 45.5895 15.3654 45.6399 15.281C45.7378 15.106 45.7657 14.9004 45.7181 14.7055C45.6705 14.5107 45.5508 14.3412 45.3833 14.231C43.0499 12.7377 40.5999 11.291 38.2199 9.70435C36.6799 8.68702 35.2022 7.58335 33.7866 6.39335L30.4989 3.24335C30.1062 2.81875 29.6853 2.42117 29.2389 2.05335C28.9559 1.85165 28.6271 1.72337 28.2823 1.68002C27.985 1.65458 27.6864 1.71107 27.4189 1.84335C27.0018 2.13591 26.6043 2.45549 26.2289 2.80002L23.1769 5.36668C21.0069 7.28002 18.9536 9.33335 16.7859 11.0834C15.3393 12.3434 13.8926 13.4167 12.3993 14.6744C12.313 14.7184 12.2371 14.7804 12.1769 14.8562C12.1166 14.9321 12.0733 15.02 12.05 15.114C12.0266 15.208 12.0237 15.3059 12.0415 15.4012C12.0592 15.4964 12.0972 15.5867 12.1529 15.666C12.2086 15.7453 12.2806 15.8117 12.3641 15.8607C12.4477 15.9097 12.5408 15.9403 12.6371 15.9502C12.7335 15.9602 12.8309 15.9493 12.9227 15.9184C13.0145 15.8875 13.0986 15.8372 13.1693 15.771Z" fill="#0C6FFF"/>
</svg>
