<svg width="36" height="36" viewBox="0 0 36 36" fill="none" xmlns="http://www.w3.org/2000/svg">
<path d="M14.935 22.5233L22.5046 18.1479L14.935 13.7724V22.5233ZM31.7951 11.1034C31.9847 11.7889 32.116 12.7077 32.2035 13.8745C32.3056 15.0413 32.3493 16.0476 32.3493 16.9227L32.4368 18.1479C32.4368 21.3419 32.2035 23.6901 31.7951 25.1923C31.4305 26.505 30.5846 27.3509 29.2719 27.7155C28.5864 27.9051 27.3321 28.0364 25.4069 28.1239C23.5109 28.226 21.7753 28.2697 20.171 28.2697L17.852 28.3572C11.7409 28.3572 7.9343 28.1239 6.43206 27.7155C5.11943 27.3509 4.2735 26.505 3.90888 25.1923C3.71928 24.5069 3.58802 23.588 3.50051 22.4212C3.39841 21.2544 3.35466 20.2481 3.35466 19.373L3.26715 18.1479C3.26715 14.9538 3.50051 12.6056 3.90888 11.1034C4.2735 9.79075 5.11943 8.94483 6.43206 8.58021C7.11755 8.39061 8.37184 8.25934 10.297 8.17183C12.1931 8.06974 13.9287 8.02599 15.533 8.02599L17.852 7.93848C23.963 7.93848 27.7697 8.17183 29.2719 8.58021C30.5846 8.94483 31.4305 9.79075 31.7951 11.1034Z" fill="#001BAB"/>
</svg>
